<svg width="40" height="40" viewBox="0 0 40 40" fill="none" xmlns="http://www.w3.org/2000/svg">
<path d="M31.2799 39.5H8.77986C7.5281 39.4997 6.29292 39.2136 5.16856 38.6634C4.04419 38.1132 3.06033 37.3135 2.29203 36.3253C1.52372 35.337 0.991258 34.1864 0.735259 32.9611C0.47926 31.7358 0.506485 30.4682 0.814857 29.255L5.37486 10.64C5.45698 10.3072 5.65063 10.0125 5.92355 9.8051C6.19647 9.59768 6.53221 9.49 6.87486 9.49998H31.9999C32.3307 9.48484 32.6573 9.57963 32.9286 9.76957C33.2 9.95951 33.4008 10.2339 33.4999 10.55L39.1699 28.79C39.5575 30.0289 39.6468 31.3418 39.4304 32.6218C39.2141 33.9017 38.6982 35.1124 37.9249 36.155C37.1642 37.202 36.1642 38.0519 35.0082 38.6338C33.8523 39.2157 32.5739 39.5127 31.2799 39.5ZM7.99986 12.5L3.66486 29.975C3.47181 30.746 3.45634 31.5507 3.61962 32.3286C3.78289 33.1064 4.12063 33.8371 4.60739 34.4654C5.09415 35.0937 5.71721 35.6033 6.42959 35.9557C7.14197 36.3082 7.92508 36.4943 8.71986 36.5H31.2199C32.0362 36.5013 32.8412 36.3089 33.5687 35.9386C34.2962 35.5684 34.9255 35.0307 35.4049 34.37C35.898 33.7054 36.2271 32.9337 36.3653 32.1178C36.5034 31.3019 36.4468 30.4648 36.1999 29.675L30.9199 12.5H7.99986Z" fill="black"/>
<path d="M26 21.5C25.6022 21.5 25.2206 21.342 24.9393 21.0607C24.658 20.7794 24.5 20.3978 24.5 20V8C24.5 6.80653 24.0259 5.66193 23.182 4.81802C22.3381 3.97411 21.1935 3.5 20 3.5C18.8065 3.5 17.6619 3.97411 16.818 4.81802C15.9741 5.66193 15.5 6.80653 15.5 8V20C15.5 20.3978 15.342 20.7794 15.0607 21.0607C14.7794 21.342 14.3978 21.5 14 21.5C13.6022 21.5 13.2206 21.342 12.9393 21.0607C12.658 20.7794 12.5 20.3978 12.5 20V8C12.5 6.01088 13.2902 4.10322 14.6967 2.6967C16.1032 1.29018 18.0109 0.5 20 0.5C21.9891 0.5 23.8968 1.29018 25.3033 2.6967C26.7098 4.10322 27.5 6.01088 27.5 8V20C27.5 20.3978 27.342 20.7794 27.0607 21.0607C26.7794 21.342 26.3978 21.5 26 21.5Z" fill="black"/>
</svg>
