<svg width="28" height="29" viewBox="0 0 28 29" fill="none" xmlns="http://www.w3.org/2000/svg">
<path d="M9.74312 5.17882C9.76854 1.27362 10.0899 1.03411 13.9056 1.03411C17.7212 1.03411 19.4555 0.343326 19.4555 5.17882M9.74312 5.17882H26.0461M9.74312 5.17882H2.45888M26.0461 5.17882C27.4336 5.17882 27.0867 8.63275 26.3929 8.63275C25.4328 8.63275 24.5082 8.63275 23.618 8.63275M26.0461 5.17882H2.45888M2.45888 5.17882C0.724558 5.17882 0.447029 8.35643 2.11201 8.63275C2.22183 8.63275 6.75477 8.63275 23.618 8.63275M23.618 8.63275V26.0705C23.3405 27.8702 21.8837 28.0899 21.1899 27.9747H6.96823C5.85825 27.9747 5.11826 26.7053 4.88701 26.0705V8.97814M10.0901 12.7775V22.7938M14.2525 12.4321V23.4846M18.415 12.7775V22.7938" stroke="url(#paint0_linear_2202_371)" stroke-width="1.5"/>
<defs>
<linearGradient id="paint0_linear_2202_371" x1="14" y1="1" x2="14" y2="28" gradientUnits="userSpaceOnUse">
<stop stop-color="#623F3F"/>
<stop offset="1" stop-color="#331717"/>
</linearGradient>
</defs>
</svg>
