<svg width="40" height="40" viewBox="0 0 40 40" fill="none" xmlns="http://www.w3.org/2000/svg">
<path d="M20 0C8.9544 0 0 8.98729 0 20.0735C0 29.4871 6.4576 37.3864 15.1688 39.556V26.2079H11.0448V20.0735H15.1688V17.4302C15.1688 10.598 18.2496 7.4312 24.9328 7.4312C26.2 7.4312 28.3864 7.68091 29.2808 7.92982V13.4902C28.8088 13.4404 27.9888 13.4155 26.9704 13.4155C23.6912 13.4155 22.424 14.6625 22.424 17.9039V20.0735H28.9568L27.8344 26.2079H22.424V40C32.3272 38.7996 40.0008 30.3366 40.0008 20.0735C40 8.98729 31.0456 0 20 0Z" fill="white"/>
</svg>
