<svg width="40" height="41" viewBox="0 0 40 41" fill="none" xmlns="http://www.w3.org/2000/svg">
<path d="M20 0.5C8.9544 0.5 0 9.48729 0 20.5735C0 29.9871 6.4576 37.8864 15.1688 40.056V26.7079H11.0448V20.5735H15.1688V17.9302C15.1688 11.098 18.2496 7.9312 24.9328 7.9312C26.2 7.9312 28.3864 8.18091 29.2808 8.42982V13.9902C28.8088 13.9404 27.9888 13.9155 26.9704 13.9155C23.6912 13.9155 22.424 15.1625 22.424 18.4039V20.5735H28.9568L27.8344 26.7079H22.424V40.5C32.3272 39.2996 40.0008 30.8366 40.0008 20.5735C40 9.48729 31.0456 0.5 20 0.5Z" fill="url(#paint0_linear_2216_1132)"/>
<defs>
<linearGradient id="paint0_linear_2216_1132" x1="20.0004" y1="0.5" x2="20.0004" y2="40.5" gradientUnits="userSpaceOnUse">
<stop stop-color="#623F3F"/>
<stop offset="1" stop-color="#331717"/>
</linearGradient>
</defs>
</svg>
