<svg width="33" height="34" viewBox="0 0 33 34" fill="none" xmlns="http://www.w3.org/2000/svg">
<path d="M4.69832 0.777397C4.1396 1.11148 3.93643 1.26567 2.81899 2.26791C2.38725 2.67908 2.03171 3.06456 2.03171 3.16735C2.03171 3.27015 1.82854 3.55283 1.59997 3.78411C0.939664 4.40088 0.507926 5.27463 0.507926 5.99418C0.507926 6.35396 0.406341 6.63664 0.253963 6.63664C0.126982 6.63664 0 7.20201 0 7.92156C0 8.61542 0.126982 9.20649 0.253963 9.20649C0.406341 9.20649 0.507926 9.77185 0.507926 10.4914C0.507926 11.1853 0.634908 11.7763 0.76189 11.7763C0.914268 11.7763 1.01585 12.059 1.01585 12.3931C1.01585 12.7529 1.14283 13.1126 1.26982 13.1897C1.42219 13.2668 1.52378 13.5752 1.52378 13.8579C1.52378 14.1149 1.65076 14.3462 1.77774 14.3462C1.93012 14.3462 2.03171 14.5775 2.03171 14.8601C2.03171 15.1428 2.15869 15.3741 2.28567 15.3741C2.43805 15.3741 2.53963 15.6054 2.53963 15.8881C2.53963 16.1708 2.66661 16.4021 2.7936 16.4021C2.94597 16.4021 3.04756 16.5819 3.04756 16.7875C3.04756 16.9931 3.17454 17.173 3.30152 17.173C3.4539 17.173 3.55549 17.3529 3.55549 17.5585C3.55549 17.7641 3.68247 17.944 3.80945 17.944C3.96183 17.944 4.06341 18.1238 4.06341 18.3294C4.06341 18.535 4.165 18.7149 4.26658 18.7149C4.39356 18.7149 4.64753 19.0233 4.8507 19.4088C5.05387 19.7942 5.5618 20.5138 5.96814 20.9764C7.44112 22.6982 12.4442 27.7094 12.6728 27.7094C12.7997 27.7094 13.2569 28.0434 13.6886 28.4546C14.1458 28.8915 14.7299 29.3027 15.0092 29.3798C15.2632 29.4826 15.4918 29.6368 15.4918 29.7395C15.4918 29.868 15.8473 30.0993 16.2536 30.2792C16.6854 30.4591 17.0155 30.6904 17.0155 30.8189C17.0155 30.9474 17.2441 31.0502 17.5235 31.0502C17.8028 31.0502 18.0314 31.153 18.0314 31.3072C18.0314 31.4356 18.26 31.5641 18.5393 31.5641C18.8187 31.5641 19.0472 31.6669 19.0472 31.7954C19.0472 31.9239 19.3012 32.0781 19.6314 32.1552C19.9361 32.2323 20.8758 32.5664 21.7139 32.8748C24.4821 33.9027 27.936 33.6457 29.6375 32.2323C30.7042 31.3842 32.5073 29.4055 32.5073 29.1228C32.5073 28.9429 32.6597 28.7373 32.8374 28.6602C33.4216 28.4803 32.4565 27.144 29.5359 24.1887C26.8185 21.4389 26.6153 21.2848 25.6249 21.2848C24.7614 21.2848 24.4567 21.4389 23.6186 22.3127C23.0853 22.8781 22.5265 23.3406 22.3742 23.3406C22.2218 23.3406 22.0948 23.4434 22.0948 23.5976C22.0948 23.7518 21.4091 23.8546 20.571 23.8546C19.7329 23.8546 19.0472 23.7518 19.0472 23.5976C19.0472 23.4434 18.8187 23.3406 18.5393 23.3406C18.26 23.3406 18.0314 23.2121 18.0314 23.0836C18.0314 22.9295 17.8282 22.8267 17.5743 22.8267C17.3203 22.8267 16.9647 22.5954 16.7616 22.3127C16.5584 22.03 16.2536 21.7987 16.0759 21.7987C15.8981 21.7987 15.7457 21.6702 15.7457 21.5417C15.7457 21.3876 15.6187 21.2848 15.4664 21.2848C15.2378 21.2848 12.8505 18.9205 12.0633 17.8926C10.4887 15.8881 9.6506 14.192 9.6506 13.0356C9.6506 11.7506 9.92996 11.2367 11.3268 9.79755C12.495 8.64112 12.6982 7.87017 12.1648 6.84223C11.8601 6.27687 7.16176 1.49695 6.29829 0.880192C5.63798 0.391922 5.38402 0.391922 4.69832 0.777397Z" fill="url(#paint0_linear_2216_1129)"/>
<defs>
<linearGradient id="paint0_linear_2216_1129" x1="16.5" y1="33.5" x2="16.5" y2="0.5" gradientUnits="userSpaceOnUse">
<stop stop-color="#623F3F"/>
<stop offset="1" stop-color="#331717"/>
</linearGradient>
</defs>
</svg>
