<svg width="38" height="38" viewBox="0 0 38 38" fill="none" xmlns="http://www.w3.org/2000/svg">
<g style="mix-blend-mode:difference">
<path d="M12.5837 28.7598C10.5391 28.7598 8.88159 30.4405 8.88159 32.5138C8.88159 34.5872 10.5391 36.2679 12.5837 36.2679C14.6284 36.2679 16.2859 34.5871 16.2859 32.5138C16.286 30.4405 14.6284 28.7598 12.5837 28.7598ZM12.5837 34.5995C11.4478 34.5995 10.527 33.6657 10.527 32.5139C10.527 31.3621 11.4478 30.4283 12.5837 30.4283C13.7197 30.4283 14.6405 31.3621 14.6405 32.5139C14.6406 33.6657 13.7197 34.5995 12.5837 34.5995Z" fill="white" stroke="white" stroke-width="1.2"/>
<path d="M28.2153 28.7598C26.1707 28.7598 24.5132 30.4405 24.5132 32.5138C24.5132 34.5872 26.1707 36.2679 28.2153 36.2679C30.26 36.2679 31.9175 34.5871 31.9175 32.5138C31.9175 30.4405 30.26 28.7598 28.2153 28.7598ZM28.2153 34.5995C27.0794 34.5995 26.1586 33.6657 26.1586 32.5139C26.1586 31.3621 27.0794 30.4283 28.2153 30.4283C29.3513 30.4283 30.2721 31.3621 30.2721 32.5139C30.2722 33.6657 29.3513 34.5995 28.2153 34.5995Z" fill="white" stroke="white" stroke-width="1.2"/>
<path d="M36.5659 6.85902C36.3946 6.66924 36.1602 6.55044 35.9077 6.52529L9.12861 6.14988L8.38818 3.85569C7.86656 2.32206 6.45026 1.2867 4.8505 1.26953H2.09444C1.64005 1.26953 1.27173 1.64302 1.27173 2.10377C1.27173 2.56453 1.64005 2.93802 2.09444 2.93802H4.8505C5.74502 2.95806 6.53269 3.54049 6.82504 4.39796L12.0492 20.3737L11.6379 21.333C11.1791 22.5327 11.3169 23.883 12.0081 24.962C12.6927 26.0218 13.8445 26.6758 15.0933 26.7139H31.095C31.5494 26.7139 31.9177 26.3404 31.9177 25.8797C31.9177 25.4189 31.5494 25.0454 31.095 25.0454H15.0932C14.388 25.0275 13.7388 24.6513 13.3655 24.0443C12.9964 23.4447 12.9206 22.706 13.1599 22.0421L13.489 21.2913L30.807 19.4559C32.7093 19.2435 34.2741 17.8405 34.7149 15.9521L36.6894 7.56799C36.7784 7.32656 36.7312 7.05502 36.5659 6.85902ZM33.1106 15.5768C32.8435 16.7924 31.8257 17.6891 30.6013 17.7875L13.489 19.5811L9.66338 7.81837L34.8794 8.19377L33.1106 15.5768Z" fill="white" stroke="white" stroke-width="1.2"/>
</g>
</svg>
