<svg width="40" height="41" viewBox="0 0 40 41" fill="none" xmlns="http://www.w3.org/2000/svg">
<path d="M19.5993 9.50003C19.4104 9.49792 19.2355 9.59556 19.1391 9.7545C19.0428 9.91343 19.0393 10.1094 19.1319 10.2705C19.1666 10.3309 19.2128 10.3823 19.2668 10.4236C19.2904 10.4511 19.3154 10.4772 19.3439 10.499C19.3675 10.5265 19.3925 10.5526 19.421 10.5744C19.4412 10.5979 19.4622 10.621 19.4861 10.6404C19.5118 10.6719 19.5407 10.7007 19.5728 10.7252C19.5963 10.7525 19.6215 10.7789 19.6499 10.8006C19.6734 10.8278 19.6986 10.852 19.727 10.8737C19.7506 10.9011 19.7756 10.9272 19.8041 10.9491C19.8277 10.9765 19.8527 11.0026 19.8812 11.0245C19.9014 11.0479 19.9224 11.0711 19.9463 11.0905C19.9689 11.1181 19.9959 11.1435 20.0234 11.1659C20.0491 11.1974 20.078 11.2261 20.1101 11.2507C20.1336 11.2779 20.1588 11.302 20.1872 11.3237C20.2108 11.3512 20.2358 11.3773 20.2643 11.3991C20.2879 11.4266 20.3129 11.4527 20.3414 11.4745C20.3649 11.5018 20.3901 11.5282 20.4185 11.5499C20.4387 11.5734 20.4597 11.5965 20.4836 11.6159C20.5093 11.6474 20.5382 11.6761 20.5703 11.7007C20.5938 11.7279 20.619 11.7521 20.6474 11.7738C20.671 11.8012 20.696 11.8273 20.7245 11.8492C20.7481 11.8766 20.7731 11.9027 20.8016 11.9246C20.8049 11.9284 20.8078 11.9326 20.8112 11.9363C20.6915 11.9209 20.5698 11.9063 20.4474 11.8939C20.4298 11.8915 20.4122 11.8899 20.3944 11.8891C20.3767 11.8882 20.359 11.8882 20.3413 11.8891C20.0609 11.9033 19.8408 12.1306 19.8402 12.4052C19.8398 12.567 19.9155 12.7104 20.0353 12.8057C20.0571 12.8318 20.0811 12.8549 20.1076 12.8765C20.1304 12.9045 20.1565 12.9289 20.1847 12.9519C20.2089 12.9816 20.2364 13.008 20.2667 13.032C20.2895 13.0593 20.3157 13.0852 20.3438 13.1074C20.3666 13.1347 20.3928 13.1606 20.4209 13.1828C20.4435 13.2099 20.4678 13.2338 20.4956 13.2559C20.5186 13.2835 20.5445 13.3088 20.5727 13.3313C20.5944 13.3573 20.6185 13.3804 20.645 13.402C20.6691 13.4318 20.6967 13.4581 20.727 13.4821C20.7498 13.5094 20.776 13.5353 20.8041 13.5575C20.8269 13.5848 20.8531 13.6107 20.8812 13.6329C20.9038 13.66 20.928 13.6839 20.9559 13.706C20.9788 13.7336 21.0047 13.7589 21.033 13.7814C21.0547 13.8075 21.0788 13.8305 21.1053 13.8521C21.128 13.8801 21.1542 13.9046 21.1824 13.9275C21.2065 13.9573 21.234 13.9837 21.2643 14.0076C21.2871 14.0349 21.3134 14.0608 21.3414 14.083C21.3637 14.1097 21.3888 14.1342 21.4161 14.1561C21.4391 14.1837 21.465 14.209 21.4932 14.2315C21.515 14.2576 21.539 14.2807 21.5655 14.3022C21.5883 14.3303 21.6144 14.3547 21.6426 14.3776C21.6668 14.4074 21.6943 14.4338 21.7246 14.4578C21.7399 14.4761 21.7574 14.4935 21.7752 14.5096C21.5907 14.4781 21.4014 14.4559 21.209 14.4413C21.1914 14.4397 21.1737 14.4389 21.1559 14.439C20.8734 14.4432 20.6439 14.6646 20.6355 14.9408C20.6304 15.1081 20.709 15.2596 20.8331 15.3578C20.8593 15.3893 20.8892 15.418 20.9222 15.4427C20.9434 15.4668 20.9643 15.4911 20.9897 15.511C21.0134 15.5393 21.0422 15.5636 21.0717 15.5864C21.0949 15.614 21.12 15.6395 21.1488 15.6618C21.1712 15.6886 21.1959 15.713 21.2235 15.7348C21.2474 15.7639 21.2754 15.7893 21.3054 15.8126C21.3307 15.8429 21.3578 15.8712 21.3898 15.8951C21.4111 15.9199 21.4337 15.9431 21.4596 15.9634C21.4853 15.9946 21.5137 16.0215 21.5463 16.0458C21.5675 16.0706 21.5904 16.0939 21.6162 16.1142C21.639 16.142 21.6648 16.1672 21.6933 16.1896C21.7188 16.2209 21.7497 16.2499 21.7824 16.2744C21.8059 16.3017 21.8304 16.3281 21.8595 16.3498C21.8829 16.377 21.9076 16.4035 21.9366 16.4252C21.9601 16.4527 21.9869 16.4788 22.0161 16.5006C22.0395 16.5282 22.064 16.5542 22.0932 16.576C22.1166 16.6034 22.1436 16.6296 22.1727 16.6514C22.196 16.679 22.2206 16.705 22.2498 16.7268C22.2733 16.7547 22.2974 16.7801 22.3269 16.8022C22.3503 16.8301 22.3768 16.8555 22.4064 16.8775C22.4296 16.9051 22.4543 16.9312 22.4835 16.9529C22.5067 16.9806 22.5338 17.0066 22.563 17.0283C22.5863 17.0564 22.6105 17.0817 22.64 17.1037C22.6634 17.1319 22.69 17.157 22.7195 17.1791C22.7426 17.2069 22.7675 17.2327 22.7966 17.2545C22.8197 17.2824 22.8445 17.3081 22.8737 17.3299C22.8953 17.3562 22.9189 17.3796 22.946 17.4007C22.9709 17.4321 23.0002 17.4615 23.0328 17.4855C23.0552 17.5123 23.0817 17.5374 23.1099 17.5585C23.1327 17.5863 23.158 17.6123 23.187 17.6339C23.2098 17.6618 23.2374 17.6876 23.2665 17.7093C23.2898 17.7379 23.316 17.765 23.346 17.7871C23.3693 17.8153 23.3955 17.8407 23.4254 17.8625C23.4483 17.8902 23.4733 17.9164 23.5025 17.9379C23.5264 17.9669 23.5536 17.9935 23.5845 18.0156C23.6073 18.0429 23.6324 18.07 23.6616 18.091C23.6706 18.1019 23.6804 18.1116 23.6905 18.1216C23.7247 18.186 23.7731 18.2418 23.8303 18.2866C23.8531 18.3137 23.8795 18.3375 23.9074 18.3596C23.9303 18.3875 23.9562 18.4125 23.9845 18.435C24.0094 18.4653 24.0377 18.4912 24.0688 18.5152C24.0919 18.5426 24.1175 18.5685 24.1459 18.5906C24.1739 18.6241 24.2042 18.6547 24.2399 18.6801C24.2602 18.7025 24.2809 18.7252 24.305 18.7438C24.3283 18.7714 24.3557 18.797 24.3845 18.8192C24.4084 18.8475 24.4343 18.8744 24.4639 18.8969C24.4858 18.9228 24.5095 18.9466 24.5363 18.9676C24.5605 18.997 24.5903 19.0222 24.6206 19.0454C24.644 19.0732 24.6688 19.101 24.6977 19.1231C24.7205 19.1503 24.7466 19.1744 24.7748 19.1962C24.7973 19.2234 24.824 19.2473 24.8519 19.2692C24.8768 19.2997 24.9047 19.3279 24.9362 19.3517C24.9582 19.3777 24.984 19.4015 25.0109 19.4224C25.0342 19.4508 25.0613 19.4753 25.0904 19.4978C25.1146 19.5273 25.1419 19.5525 25.1724 19.5756C25.1944 19.602 25.2175 19.6273 25.2447 19.6486C25.2678 19.677 25.2952 19.7015 25.3242 19.724C25.3473 19.7526 25.3745 19.7769 25.4037 19.7994C25.4279 19.8294 25.4546 19.8562 25.4856 19.8796C25.5078 19.9065 25.5326 19.9312 25.5603 19.9526C25.5828 19.9803 25.6091 20.0061 25.6374 20.028C25.6608 20.0572 25.6896 20.0806 25.7194 20.1034C25.7456 20.1358 25.7744 20.1639 25.8085 20.1882C25.8326 20.2164 25.8578 20.2444 25.888 20.266C25.9077 20.2887 25.9293 20.3111 25.9531 20.3296C25.9751 20.3573 26.0022 20.3807 26.0302 20.4027C26.0322 20.4052 26.0353 20.4072 26.0374 20.4097C26.04 20.4117 26.042 20.4149 26.0447 20.4168C26.0658 20.4415 26.0885 20.4655 26.1145 20.4851C26.1396 20.516 26.1687 20.5444 26.2012 20.5676C26.2216 20.5916 26.2437 20.6144 26.2687 20.6336C26.2943 20.6657 26.3243 20.6944 26.3578 20.7184C26.3797 20.7442 26.4029 20.7689 26.4302 20.7891C26.4547 20.8193 26.4827 20.8466 26.5145 20.8693C26.5349 20.8938 26.5566 20.9158 26.582 20.9353C26.6073 20.9677 26.6375 20.996 26.6711 21.0201C26.6944 21.0481 26.7208 21.0742 26.7506 21.0955C26.7713 21.1204 26.7945 21.1443 26.8204 21.1638C26.8454 21.1957 26.8741 21.2227 26.9072 21.2463C26.9279 21.2715 26.9509 21.2948 26.977 21.3146C27.0017 21.346 27.0311 21.3738 27.0637 21.3971C27.0839 21.4216 27.1082 21.4437 27.1336 21.463C27.1569 21.4936 27.1846 21.5178 27.2155 21.5408C27.2372 21.5687 27.2621 21.5923 27.2902 21.6138C27.312 21.6423 27.3389 21.6673 27.3673 21.6892C27.3902 21.7198 27.4187 21.744 27.4493 21.767C27.4718 21.7965 27.499 21.82 27.5288 21.8424C27.5521 21.873 27.5795 21.8997 27.6107 21.9225C27.6319 21.9496 27.6555 21.9748 27.6831 21.9956C27.7056 22.0253 27.7349 22.0486 27.765 22.071C27.7877 22.1007 27.8142 22.1265 27.8445 22.1487C27.8674 22.1784 27.8959 22.2021 27.9265 22.2241C27.9473 22.2509 27.9716 22.2742 27.9988 22.2948C28.0214 22.3255 28.0475 22.3522 28.0783 22.375C28.1003 22.4041 28.1282 22.4286 28.1577 22.4504C28.1802 22.4801 28.2094 22.5037 28.2397 22.5258C28.2611 22.554 28.2858 22.58 28.3144 22.6012C28.3363 22.6305 28.3644 22.6548 28.3939 22.6766C28.4156 22.7057 28.4441 22.7303 28.4734 22.7519C28.4956 22.7818 28.5226 22.8078 28.5529 22.8297C28.5751 22.8595 28.6021 22.8833 28.6324 22.9051C28.6543 22.9345 28.6797 22.9589 28.7095 22.9805C28.7314 23.01 28.759 23.0343 28.7889 23.0559C28.8104 23.0847 28.8369 23.11 28.866 23.1313C28.8887 23.1623 28.9165 23.1868 28.948 23.209C28.9697 23.2381 28.9956 23.2632 29.0251 23.2844C29.0468 23.3136 29.0749 23.3386 29.1046 23.3598C29.1259 23.3885 29.1525 23.4142 29.1817 23.4352C29.204 23.4659 29.2323 23.4911 29.2636 23.5129C29.2857 23.5426 29.3127 23.5671 29.3431 23.5883C29.3649 23.6176 29.3902 23.6428 29.4202 23.6637C29.4411 23.6919 29.4686 23.7163 29.4973 23.7368C29.5187 23.7666 29.5445 23.7908 29.5744 23.8122C29.5749 23.8126 29.5763 23.8118 29.5768 23.8122C29.5776 23.8128 29.5783 23.8139 29.5792 23.8145C29.5796 23.8149 29.5788 23.8166 29.5792 23.8169C29.5999 23.8448 29.6254 23.8673 29.6539 23.8876C29.6547 23.8883 29.6554 23.8892 29.6563 23.8899C29.6572 23.8906 29.6577 23.8917 29.6587 23.8923C29.6595 23.893 29.6602 23.8939 29.6611 23.8946C29.6776 23.9165 29.6973 23.9364 29.7189 23.9535C29.7238 23.9577 29.7281 23.9637 29.7334 23.9677C29.7338 23.968 29.7354 23.9673 29.7358 23.9677C29.7361 23.9679 29.7355 23.9698 29.7358 23.97C29.7441 23.9812 29.755 23.9906 29.7647 24.0006C29.7674 24.0036 29.7692 24.0072 29.7719 24.01C29.7802 24.0179 29.7894 24.0242 29.7985 24.0312C29.8028 24.0348 29.806 24.0397 29.8105 24.043C29.811 24.0433 29.8123 24.0426 29.8129 24.043C29.8137 24.0436 29.8144 24.0447 29.8153 24.0453C29.821 24.053 29.8282 24.0594 29.8345 24.0665C29.8537 24.0901 29.8742 24.1105 29.8996 24.1278C29.9205 24.1572 29.9467 24.1824 29.9767 24.2032C29.9984 24.2338 30.0249 24.2596 30.0562 24.2809C30.0771 24.3098 30.1013 24.3357 30.1309 24.3563C30.1523 24.3865 30.1773 24.4127 30.208 24.4341C30.229 24.4636 30.2551 24.4907 30.2851 24.5118C30.3061 24.5412 30.3323 24.5661 30.3622 24.5872C30.3835 24.617 30.409 24.6436 30.4393 24.6649C30.4607 24.6948 30.4885 24.7212 30.5188 24.7427C30.5401 24.7721 30.5659 24.7992 30.5959 24.8204C30.6174 24.85 30.6427 24.8744 30.673 24.8958C30.695 24.9261 30.7215 24.9518 30.7525 24.9735C30.774 25.0028 30.7996 25.0301 30.8296 25.0513C30.8511 25.0804 30.8767 25.1079 30.9066 25.129C30.9276 25.157 30.9527 25.1813 30.9814 25.202C31.0036 25.2329 31.0295 25.2599 31.0608 25.2822C31.0824 25.311 31.1084 25.3387 31.1379 25.3599C31.1605 25.3902 31.1886 25.4158 31.2199 25.4377C31.2409 25.4652 31.2638 25.4902 31.2922 25.5107C31.3149 25.5416 31.3402 25.5685 31.3717 25.5909C31.394 25.6204 31.4207 25.647 31.4512 25.6686C31.4732 25.6973 31.4984 25.7252 31.5283 25.7463C31.5504 25.7751 31.5755 25.8005 31.6054 25.8217C31.626 25.8485 31.6503 25.8744 31.6777 25.8948C31.7004 25.9254 31.7285 25.9524 31.7597 25.9749C31.7825 26.0049 31.8081 26.033 31.8391 26.0551C31.8609 26.083 31.8849 26.1072 31.9138 26.1281C31.9364 26.1576 31.963 26.1839 31.9933 26.2059C32.0155 26.2345 32.0408 26.2622 32.0704 26.2836C32.093 26.3127 32.1173 26.342 32.1475 26.3638C32.1697 26.3919 32.1954 26.4156 32.2246 26.4368C32.2462 26.4646 32.2709 26.491 32.2993 26.5122C32.3225 26.5424 32.3502 26.5698 32.3813 26.5924C32.404 26.6214 32.4282 26.6459 32.4584 26.6678C32.4802 26.6957 32.5045 26.7218 32.5331 26.7432C32.5561 26.7731 32.5818 26.8007 32.6126 26.8233C32.6355 26.8523 32.6619 26.8792 32.6921 26.901C32.7137 26.9282 32.7362 26.9531 32.7644 26.9741C32.7871 27.0035 32.8139 27.0294 32.8439 27.0518C32.8662 27.0803 32.8917 27.1077 32.921 27.1296C32.9442 27.1591 32.9699 27.1873 33.0005 27.2097C33.023 27.2378 33.0483 27.2636 33.0776 27.2851C33.1001 27.3134 33.1254 27.3387 33.1547 27.3605C33.1774 27.3893 33.2021 27.4162 33.2318 27.4382C33.2552 27.4677 33.2806 27.4958 33.3112 27.5184C33.3328 27.5451 33.3583 27.5682 33.3859 27.5891C33.4092 27.6184 33.4352 27.6466 33.4654 27.6693C33.4883 27.6978 33.513 27.725 33.5425 27.747C33.5654 27.7754 33.5901 27.8027 33.6196 27.8247C33.6425 27.8529 33.6697 27.8783 33.6991 27.9001C33.7114 27.9152 33.7241 27.931 33.7377 27.9449C34.9533 25.9388 35.7484 23.6611 36 21.2255C35.9793 21.2057 35.9582 21.1863 35.9373 21.1667C35.9354 21.1646 35.9345 21.1616 35.9325 21.1596C35.9094 21.1373 35.8859 21.1156 35.8626 21.0936C35.8599 21.0908 35.8581 21.087 35.8554 21.0842C35.8323 21.0619 35.8088 21.0402 35.7855 21.0182C35.7827 21.0154 35.781 21.0116 35.7783 21.0088C35.7709 21.0017 35.7639 20.9946 35.7566 20.9876C35.7155 20.9471 35.6733 20.9071 35.6313 20.8674C35.6301 20.8662 35.6301 20.8639 35.6289 20.8627C35.6281 20.8619 35.6273 20.8611 35.6265 20.8603C35.6009 20.8355 35.5754 20.8094 35.5494 20.7849C35.5256 20.7618 35.5013 20.7394 35.4771 20.7166C35.4752 20.7146 35.4743 20.7116 35.4723 20.7095C35.4484 20.6865 35.4241 20.664 35.4 20.6412C35.398 20.6392 35.3971 20.6362 35.3951 20.6341C35.372 20.6119 35.3485 20.5902 35.3252 20.5682C35.3224 20.5654 35.3209 20.5615 35.318 20.5587C35.3107 20.5516 35.3037 20.5446 35.2963 20.5375C35.255 20.4968 35.2133 20.4572 35.1711 20.4174C35.1698 20.4162 35.1698 20.4139 35.1687 20.4126C35.1678 20.4119 35.167 20.411 35.1663 20.4103C35.1406 20.3855 35.1152 20.3594 35.0892 20.3349C35.0635 20.3101 35.0381 20.284 35.0121 20.2595C34.9883 20.2364 34.9639 20.2139 34.9398 20.1912C34.9378 20.1891 34.9369 20.1861 34.9349 20.1841C34.9119 20.1618 34.8883 20.1401 34.8651 20.1181C34.8623 20.1153 34.8606 20.1115 34.8578 20.1087C34.8317 20.0835 34.8071 20.0582 34.7807 20.0333C34.7555 20.0089 34.7316 19.9844 34.706 19.9602C34.6803 19.9354 34.6549 19.9093 34.6289 19.8848C34.6032 19.86 34.5778 19.8339 34.5518 19.8094C34.528 19.7864 34.5036 19.7639 34.4795 19.7411C34.4776 19.7391 34.4766 19.7361 34.4746 19.734C34.4516 19.7118 34.4281 19.6901 34.4048 19.6681C34.4021 19.6653 34.4003 19.6614 34.3975 19.6586C34.3745 19.6364 34.351 19.6147 34.3277 19.5927C34.3249 19.5899 34.3232 19.586 34.3204 19.5832C34.3131 19.5762 34.3061 19.5691 34.2988 19.5621C34.2577 19.5216 34.2154 19.4815 34.1735 19.4419C34.1723 19.4407 34.1723 19.4384 34.1711 19.4371C34.1703 19.4364 34.1695 19.4355 34.1687 19.4348C34.143 19.41 34.1176 19.3839 34.0916 19.3594C34.0678 19.3363 34.0434 19.3138 34.0193 19.2911C34.0174 19.289 34.0164 19.286 34.0144 19.284C33.9914 19.2618 33.9679 19.24 33.9446 19.218C33.9419 19.2152 33.9401 19.2114 33.9373 19.2086C33.9143 19.1864 33.8908 19.1646 33.8675 19.1426C33.8647 19.1398 33.863 19.136 33.8602 19.1332C33.8529 19.1261 33.8459 19.119 33.8386 19.112C33.7975 19.0715 33.7552 19.0315 33.7133 18.9918C33.7121 18.9906 33.7121 18.9884 33.7109 18.9871C33.7101 18.9863 33.7093 18.9855 33.7085 18.9847C33.6828 18.9599 33.6574 18.9338 33.6314 18.9093C33.6076 18.8863 33.5832 18.8638 33.5591 18.841C33.5572 18.839 33.5563 18.836 33.5542 18.8339C33.5304 18.8109 33.5061 18.7884 33.4819 18.7656C33.4799 18.7636 33.4791 18.7606 33.4771 18.7586C33.454 18.7363 33.4305 18.7146 33.4072 18.6926C33.4044 18.6898 33.4028 18.6859 33.4 18.6832C33.3926 18.6761 33.3856 18.669 33.3783 18.662C33.337 18.6213 33.2953 18.5817 33.253 18.5418C33.2518 18.5406 33.2518 18.5383 33.2506 18.537C33.2498 18.5363 33.249 18.5355 33.2482 18.5347C33.2226 18.5099 33.1971 18.4838 33.1712 18.4593C33.1455 18.4345 33.12 18.4084 33.0941 18.3839C33.0702 18.3608 33.0459 18.3384 33.0217 18.3156C33.0198 18.3136 33.0189 18.3105 33.0169 18.3085C32.9938 18.2863 32.9703 18.2646 32.947 18.2425C32.9443 18.2397 32.9426 18.2359 32.9398 18.2331C32.9167 18.2109 32.8932 18.1892 32.8699 18.1671C32.8672 18.1643 32.8655 18.1605 32.8627 18.1577C32.8375 18.1333 32.8136 18.1088 32.788 18.0847C32.7623 18.0598 32.7369 18.0338 32.7109 18.0093C32.6852 17.9845 32.6598 17.9584 32.6338 17.9339C32.61 17.9108 32.5856 17.8883 32.5615 17.8655C32.5595 17.8635 32.5586 17.8605 32.5566 17.8585C32.5336 17.8362 32.51 17.8145 32.4868 17.7925C32.4841 17.7897 32.4823 17.7859 32.4795 17.7831C32.4565 17.7608 32.4329 17.7391 32.4097 17.7171C32.4069 17.7143 32.4052 17.7105 32.4024 17.7077C32.3951 17.7006 32.3881 17.6935 32.3807 17.6865C32.3397 17.646 32.2974 17.606 32.2555 17.5663C32.2542 17.5651 32.2542 17.5628 32.2531 17.5615C32.2522 17.5608 32.2515 17.56 32.2507 17.5592C32.225 17.5344 32.1996 17.5083 32.1736 17.4838C32.1498 17.4607 32.1254 17.4383 32.1013 17.4155C32.0993 17.4135 32.0984 17.4105 32.0964 17.4084C32.0726 17.3853 32.0482 17.3629 32.0241 17.3401C32.0221 17.3381 32.0212 17.3351 32.0192 17.333C31.9962 17.3108 31.9727 17.2891 31.9494 17.267C31.9465 17.2643 31.945 17.2604 31.9421 17.2576C31.9348 17.2505 31.9278 17.2434 31.9205 17.2364C31.8792 17.1957 31.8374 17.1561 31.7952 17.1163C31.794 17.115 31.794 17.1128 31.7928 17.1115C31.792 17.1108 31.7912 17.1099 31.7904 17.1092C31.7647 17.0844 31.7393 17.0583 31.7133 17.0338C31.6895 17.0107 31.6651 16.9882 31.641 16.9655C31.6391 16.9634 31.6381 16.9604 31.6361 16.9584C31.6123 16.9353 31.588 16.9128 31.5638 16.8901C31.5619 16.888 31.561 16.885 31.559 16.883C31.5359 16.8607 31.5124 16.839 31.4891 16.817C31.4863 16.8142 31.4846 16.8104 31.4819 16.8076C31.4558 16.7824 31.4311 16.7571 31.4048 16.7322C31.3796 16.7078 31.3557 16.6833 31.3301 16.6591C31.3044 16.6343 31.279 16.6082 31.253 16.5837C31.2273 16.5589 31.2019 16.5328 31.1759 16.5083C31.1521 16.4853 31.1277 16.4628 31.1036 16.44C31.1016 16.438 31.1007 16.435 31.0987 16.4329C31.0756 16.4107 31.0521 16.389 31.0289 16.367C31.0261 16.3642 31.0244 16.3603 31.0216 16.3575C30.9985 16.3353 30.975 16.3136 30.9518 16.2916C30.949 16.2888 30.9473 16.2849 30.9445 16.2821C30.9193 16.2577 30.8954 16.2332 30.8698 16.2091C30.8441 16.1843 30.8187 16.1582 30.7927 16.1337C30.767 16.1089 30.7416 16.0828 30.7156 16.0583C30.6918 16.0352 30.6674 16.0127 30.6433 15.99C30.6414 15.9879 30.6404 15.9849 30.6384 15.9829C30.6154 15.9606 30.5919 15.9389 30.5686 15.9169C30.5659 15.9141 30.5641 15.9103 30.5613 15.9075C30.5383 15.8852 30.5148 15.8635 30.4915 15.8415C30.4887 15.8387 30.487 15.8349 30.4842 15.8321C30.4769 15.825 30.4699 15.8179 30.4626 15.8109C30.4215 15.7704 30.3792 15.7304 30.3373 15.6907C30.3361 15.6895 30.3361 15.6873 30.3349 15.686C30.334 15.6852 30.3333 15.6844 30.3325 15.6836C30.3068 15.6588 30.2814 15.6327 30.2554 15.6082C30.2316 15.5852 30.2072 15.5627 30.1831 15.5399C30.1812 15.5379 30.1802 15.5349 30.1782 15.5328C30.1544 15.5098 30.13 15.4873 30.1059 15.4645C30.1039 15.4625 30.1031 15.4595 30.1011 15.4574C30.078 15.4352 30.0545 15.4135 30.0312 15.3915C30.0284 15.3887 30.0268 15.3848 30.024 15.3821C30.0166 15.375 30.0096 15.3679 30.0023 15.3609C29.961 15.3201 29.9193 15.2806 29.877 15.2407C29.8758 15.2395 29.8758 15.2372 29.8746 15.2359C29.8738 15.2352 29.873 15.2343 29.8722 15.2336C29.8466 15.2088 29.8211 15.1827 29.7951 15.1582C29.7695 15.1334 29.744 15.1073 29.718 15.0828C29.6942 15.0597 29.6699 15.0373 29.6457 15.0145C29.6438 15.0125 29.6429 15.0094 29.6409 15.0074C29.6178 14.9852 29.5943 14.9634 29.571 14.9414C29.5682 14.9386 29.5665 14.9348 29.5638 14.932C29.5407 14.9098 29.5172 14.888 29.4939 14.866C29.4911 14.8632 29.4894 14.8594 29.4867 14.8566C29.4615 14.8322 29.4376 14.8077 29.412 14.7835C29.3863 14.7587 29.3608 14.7327 29.3349 14.7082C29.3092 14.6833 29.2838 14.6573 29.2578 14.6328C29.2339 14.6097 29.2096 14.5872 29.1855 14.5644C29.1835 14.5624 29.1826 14.5594 29.1806 14.5574C29.1575 14.5351 29.134 14.5134 29.1107 14.4914C29.108 14.4886 29.1063 14.4848 29.1035 14.482C29.0804 14.4597 29.0569 14.438 29.0336 14.416C29.0309 14.4132 29.0292 14.4094 29.0264 14.4066C29.0191 14.3995 29.0121 14.3924 29.0047 14.3854C28.9636 14.3449 28.9214 14.3049 28.8795 14.2652C28.8782 14.264 28.8782 14.2617 28.8771 14.2604C28.8762 14.2597 28.8754 14.2589 28.8747 14.2581C28.849 14.2333 28.8236 14.2072 28.7976 14.1827C28.7738 14.1596 28.7494 14.1372 28.7253 14.1144C28.7233 14.1124 28.7224 14.1094 28.7204 14.1073C28.6966 14.0842 28.6722 14.0618 28.6481 14.039C28.6461 14.037 28.6452 14.034 28.6432 14.0319C28.6202 14.0097 28.5967 13.988 28.5734 13.9659C28.5705 13.9632 28.569 13.9593 28.5661 13.9565C28.5588 13.9494 28.5518 13.9423 28.5445 13.9353C28.5031 13.8946 28.4614 13.855 28.4192 13.8152C28.4179 13.8139 28.4179 13.8117 28.4168 13.8104C28.4159 13.8096 28.4152 13.8088 28.4144 13.8081C28.3887 13.7833 28.3633 13.7572 28.3373 13.7327C28.3135 13.7096 28.2891 13.6871 28.265 13.6644C28.2631 13.6623 28.2621 13.6593 28.2601 13.6573C28.2363 13.6342 28.2119 13.6117 28.1878 13.589C28.1859 13.5869 28.185 13.5839 28.183 13.5819C28.1599 13.5596 28.1364 13.5379 28.1131 13.5159C28.1103 13.5131 28.1086 13.5093 28.1059 13.5065C28.0798 13.4813 28.0551 13.456 28.0288 13.4311C28.0035 13.4067 27.9797 13.3821 27.9541 13.358C27.9284 13.3332 27.9029 13.3071 27.877 13.2826C27.8513 13.2578 27.8258 13.2317 27.7999 13.2072C27.776 13.1842 27.7517 13.1617 27.7275 13.1389C27.7256 13.1369 27.7247 13.1339 27.7227 13.1318C27.6996 13.1096 27.6761 13.0879 27.6528 13.0659C27.6501 13.0631 27.6484 13.0592 27.6456 13.0564C27.6225 13.0342 27.599 13.0125 27.5757 12.9905C27.573 12.9877 27.5713 12.9838 27.5685 12.981C27.5433 12.9566 27.5194 12.9321 27.4938 12.908C27.4681 12.8832 27.4427 12.8571 27.4167 12.8326C27.391 12.8078 27.3656 12.7817 27.3396 12.7572C27.3158 12.7341 27.2914 12.7116 27.2673 12.6889C27.2653 12.6868 27.2644 12.6838 27.2624 12.6818C27.2394 12.6595 27.2158 12.6378 27.1926 12.6158C27.1899 12.613 27.1881 12.6092 27.1853 12.6064C27.1623 12.5841 27.1388 12.5624 27.1155 12.5404C27.1127 12.5376 27.111 12.5338 27.1082 12.531C27.1009 12.5239 27.0939 12.5168 27.0866 12.5098C27.0455 12.4693 27.0032 12.4293 26.9613 12.3896C26.96 12.3884 26.96 12.3862 26.9589 12.3849C26.958 12.3841 26.9573 12.3833 26.9565 12.3825C26.9308 12.3577 26.9054 12.3316 26.8794 12.3071C26.8729 12.3009 26.8666 12.2945 26.8601 12.2883C25.1924 10.643 22.7926 9.69162 19.6515 9.50328C19.6339 9.50162 19.6162 9.50086 19.5985 9.50094M12.6597 9.65648C12.3588 9.66621 12.0399 9.80026 11.6237 10.0735C10.6815 10.9176 9.51547 11.538 9.11804 12.6468C9.11619 12.6519 9 12.9767 9 12.9767C9.09683 13.9177 9.50661 15.0991 10.1517 16.4004C11.2276 18.5701 12.7792 21.2402 14.9533 23.3581C14.988 23.3924 15.0242 23.4254 15.0593 23.4594C15.0597 23.4598 15.0589 23.4614 15.0593 23.4617C15.0848 23.4862 15.1107 23.5105 15.1364 23.5348L15.1388 23.5371C15.1392 23.5375 15.1408 23.5368 15.1412 23.5371C15.142 23.5378 15.1429 23.5388 15.1436 23.5395C15.1514 23.5475 15.1598 23.555 15.1677 23.5631C15.1697 23.5651 15.1706 23.5681 15.1726 23.5702C15.2016 23.599 15.23 23.6287 15.2593 23.6573C15.2713 23.6692 15.2834 23.6808 15.2955 23.6927C15.3095 23.7063 15.3248 23.7191 15.3389 23.7327C15.3494 23.7427 15.3596 23.7534 15.3702 23.7633L15.375 23.7681C15.3932 23.7855 15.4122 23.8026 15.4305 23.8199C15.4372 23.8267 15.4429 23.8344 15.4497 23.8411L15.4546 23.8459C15.4562 23.8475 15.4577 23.8491 15.4594 23.8506C15.4961 23.8871 15.5332 23.9229 15.5703 23.9591C15.6007 23.9891 15.6312 24.0188 15.6619 24.0486C15.6676 24.0541 15.6731 24.0597 15.6788 24.0651C15.6804 24.0667 15.6819 24.0683 15.6836 24.0699C15.686 24.0722 15.6885 24.0746 15.6909 24.077C15.7075 24.0929 15.7248 24.1083 15.7415 24.1241C15.7514 24.134 15.7604 24.1449 15.7704 24.1547C15.8117 24.1959 15.8538 24.2364 15.8957 24.2772C15.9063 24.2873 15.9163 24.2978 15.927 24.3078C15.9428 24.323 15.9593 24.3375 15.9751 24.3526C15.9859 24.3633 15.9957 24.3749 16.0064 24.3856C16.0215 24.4001 16.0371 24.4138 16.0522 24.4281C16.0593 24.4353 16.0668 24.4422 16.0739 24.4493C16.0747 24.4501 16.0755 24.4509 16.0763 24.4516C16.0799 24.4552 16.0823 24.4598 16.0859 24.4634C16.0876 24.465 16.0891 24.4666 16.0908 24.4681C16.1361 24.5133 16.1822 24.5579 16.2281 24.6024C16.2329 24.6072 16.2377 24.6118 16.2426 24.6166C16.2568 24.6303 16.2717 24.643 16.286 24.6566C16.2983 24.6688 16.3097 24.6821 16.3222 24.6943C16.3356 24.7071 16.3496 24.7192 16.3631 24.732C16.3778 24.7467 16.3916 24.7623 16.4065 24.7768C16.4224 24.792 16.4387 24.8065 16.4547 24.8216C16.4575 24.8244 16.4616 24.8259 16.4643 24.8287C16.4651 24.8295 16.4659 24.8303 16.4667 24.831C16.4688 24.833 16.4695 24.8361 16.4716 24.8381C16.4744 24.8409 16.476 24.8447 16.4788 24.8475C16.4922 24.8603 16.5063 24.8725 16.5198 24.8852C16.5221 24.8876 16.5246 24.8899 16.527 24.8923C16.5378 24.9029 16.5475 24.9146 16.5583 24.9253C16.571 24.9374 16.5841 24.9486 16.5969 24.9607C16.6032 24.967 16.6098 24.9732 16.6161 24.9796C16.6237 24.987 16.6302 24.9957 16.6378 25.0031C16.6496 25.0144 16.6621 25.0249 16.674 25.0362C16.6886 25.0507 16.7026 25.0665 16.7174 25.081C16.7291 25.0921 16.7417 25.1028 16.7535 25.114C16.7676 25.1279 16.7803 25.1425 16.7945 25.1564C16.8063 25.1677 16.8187 25.1782 16.8306 25.1895C16.8454 25.2042 16.8591 25.2196 16.874 25.2342C16.8851 25.2448 16.8966 25.2544 16.9078 25.2649C16.9233 25.2802 16.938 25.2967 16.9536 25.312C16.9638 25.3217 16.9747 25.3305 16.9849 25.3403C16.9919 25.3475 16.9995 25.3543 17.0066 25.3614C17.015 25.3697 17.0222 25.3791 17.0307 25.3874C17.0416 25.3978 17.0534 25.4076 17.0645 25.418C17.0708 25.4243 17.0774 25.4305 17.0837 25.4368C17.0929 25.4459 17.101 25.4561 17.1102 25.4651C17.1204 25.4748 17.1313 25.4837 17.1415 25.4934C17.1579 25.5096 17.1733 25.5267 17.1897 25.5428C17.1991 25.5517 17.2093 25.5599 17.2186 25.5688C17.2358 25.5858 17.252 25.6037 17.2692 25.6207C17.2785 25.6295 17.2888 25.6378 17.2981 25.6466C17.3146 25.6629 17.3297 25.6798 17.3463 25.696C17.3556 25.7049 17.3658 25.7131 17.3752 25.722C17.3956 25.7422 17.415 25.7632 17.4354 25.7833L17.4378 25.7856C17.4424 25.7899 17.4478 25.7931 17.4523 25.7974C17.4701 25.8151 17.4874 25.834 17.5054 25.8516C17.5395 25.8846 17.5744 25.9179 17.609 25.9506C17.6271 25.9686 17.6438 25.9869 17.662 26.0048C17.6698 26.0122 17.6784 26.0187 17.6862 26.026C17.7074 26.047 17.7275 26.0687 17.7488 26.0896L17.7512 26.092C17.7549 26.0954 17.7596 26.0979 17.7633 26.1014C17.7828 26.1208 17.8015 26.141 17.8211 26.1603C17.8537 26.1919 17.8868 26.2232 17.9198 26.2545C17.9394 26.2739 17.958 26.2941 17.9777 26.3134C17.9838 26.3192 17.9908 26.324 17.9969 26.3299C18.0171 26.35 18.0369 26.3712 18.0572 26.3912C18.0888 26.4218 18.1215 26.4527 18.1535 26.4831C18.1743 26.5038 18.1953 26.5238 18.2162 26.5444C18.2316 26.559 18.2465 26.5746 18.262 26.5892C18.2676 26.5946 18.2732 26.6003 18.2789 26.6057C18.3016 26.6281 18.3234 26.6518 18.3463 26.674C18.3551 26.6827 18.3641 26.6913 18.3729 26.7C18.4031 26.7291 18.4339 26.7582 18.4645 26.7871C18.4867 26.8093 18.5096 26.8311 18.5319 26.8531C18.536 26.8569 18.5399 26.861 18.5439 26.8649C18.5917 26.9125 18.6399 26.9592 18.6885 27.0062C18.7147 27.0325 18.7415 27.0579 18.768 27.084C18.7802 27.0955 18.792 27.1078 18.8042 27.1193C18.8045 27.1197 18.8062 27.1189 18.8065 27.1193C18.8113 27.1238 18.8163 27.1289 18.821 27.1335C18.8301 27.1425 18.8384 27.1528 18.8476 27.1618C18.9007 27.2148 18.9549 27.2674 19.009 27.3196C19.0337 27.3444 19.0587 27.3682 19.0837 27.3927C19.0939 27.4024 19.1048 27.4114 19.115 27.421C19.1194 27.4254 19.1227 27.4307 19.127 27.4352C19.139 27.447 19.1512 27.4588 19.1632 27.4705C19.1887 27.4961 19.2145 27.5206 19.2403 27.5459C19.2407 27.5463 19.2423 27.5455 19.2427 27.5459C19.2597 27.5627 19.2761 27.581 19.2933 27.5978C19.3112 27.6149 19.3282 27.6325 19.3463 27.6497C19.3636 27.6662 19.3819 27.6827 19.3993 27.6991C19.3997 27.6995 19.399 27.7011 19.3993 27.7015C19.4248 27.726 19.4508 27.7502 19.4764 27.7745C19.4777 27.7757 19.4777 27.7781 19.4788 27.7793C19.5037 27.8032 19.5284 27.8262 19.5535 27.85C19.5548 27.8512 19.5547 27.8535 19.5559 27.8547C19.5814 27.8793 19.6073 27.9034 19.633 27.9278C19.6343 27.929 19.6343 27.9313 19.6354 27.9325C19.6599 27.9562 19.6854 27.9798 19.7101 28.0033C19.7121 28.0052 19.7129 28.0084 19.715 28.0104C19.7389 28.0334 19.7631 28.0558 19.7873 28.0787L19.7945 28.0858C19.8193 28.1097 19.8418 28.1351 19.8669 28.1588L19.8717 28.1636C19.882 28.1733 19.8928 28.1822 19.903 28.1918C19.9167 28.205 19.9302 28.2188 19.944 28.2319C19.9467 28.2347 19.9484 28.2385 19.9512 28.2413C19.9742 28.2635 19.9978 28.2853 20.0211 28.3073C20.0247 28.3108 20.0271 28.3155 20.0307 28.319C20.0531 28.3406 20.0756 28.3613 20.0982 28.3827L20.1102 28.3944C20.1328 28.4162 20.1548 28.4388 20.1776 28.4604C20.1961 28.4786 20.2145 28.4965 20.2331 28.5146C20.2694 28.5506 20.3071 28.5851 20.3439 28.6206C20.3447 28.6214 20.3456 28.6222 20.3463 28.623C20.3468 28.6234 20.3459 28.6248 20.3463 28.6253C20.3504 28.6292 20.3543 28.6332 20.3584 28.6371C20.395 28.6737 20.432 28.7093 20.4692 28.7455C20.4955 28.7715 20.5222 28.7974 20.5487 28.8232C20.5846 28.8587 20.6208 28.8942 20.6571 28.9292L20.662 28.934C20.6664 28.9383 20.672 28.9415 20.6765 28.9457C20.7126 28.9819 20.7482 29.0184 20.7849 29.0542C20.8208 29.0898 20.8568 29.125 20.8933 29.1602L20.8981 29.1649C20.9111 29.1774 20.9236 29.1902 20.9367 29.2026C20.9526 29.2184 20.9688 29.234 20.9848 29.2497C21.0229 29.2878 21.0618 29.3251 21.1005 29.3628C21.1356 29.3977 21.1708 29.4321 21.2065 29.4665L21.2137 29.4736C21.2268 29.4861 21.2392 29.4988 21.2523 29.5113C21.2706 29.5295 21.2893 29.5475 21.3077 29.5655C21.3434 29.6012 21.3798 29.6363 21.4161 29.6715C21.4512 29.7063 21.4865 29.7409 21.5221 29.7752C21.5245 29.7775 21.527 29.7799 21.5294 29.7823C21.5423 29.7947 21.5549 29.8076 21.5679 29.82C21.5839 29.8358 21.6001 29.8513 21.6161 29.8671C21.6626 29.9137 21.7108 29.958 21.7583 30.0038C21.7611 30.0066 21.7627 30.0104 21.7655 30.0132C21.7786 30.0257 21.791 30.0385 21.8041 30.0509C21.83 30.0767 21.8574 30.1008 21.8836 30.1263C21.903 30.1457 21.9218 30.166 21.9414 30.1852C21.9842 30.228 22.0278 30.2704 22.0715 30.3125L22.0812 30.3219C22.0937 30.3339 22.1071 30.3452 22.1197 30.3572C22.146 30.3834 22.1726 30.4091 22.1992 30.435C22.226 30.4616 22.2516 30.4888 22.2787 30.5151C22.3065 30.5429 22.3347 30.5702 22.363 30.5976C22.3893 30.6237 22.4159 30.6496 22.4425 30.6753C22.4688 30.7014 22.4954 30.7273 22.522 30.7531C22.5478 30.7787 22.5754 30.8031 22.6015 30.8285C22.6255 30.8523 22.6495 30.8756 22.6738 30.8992C22.7021 30.9274 22.7294 30.9562 22.7582 30.984C22.7945 31.0201 22.832 31.0546 22.869 31.09L22.8714 31.0924C22.8763 31.097 22.881 31.1019 22.8859 31.1065C22.9218 31.1426 22.9577 31.1794 22.9943 31.215C23.0185 31.2391 23.0444 31.2619 23.069 31.2857C23.1066 31.3231 23.144 31.3597 23.1823 31.3964L23.1871 31.4012C23.1925 31.4063 23.1986 31.4102 23.204 31.4154C23.2378 31.4493 23.2708 31.4834 23.3052 31.5167C23.3426 31.5539 23.3803 31.5909 23.4185 31.6275L23.4234 31.6322C23.4364 31.6446 23.4488 31.6575 23.4619 31.6699C23.481 31.689 23.5005 31.7076 23.5197 31.7264C23.555 31.7619 23.5897 31.7977 23.6257 31.8325C23.6597 31.8662 23.6947 31.8982 23.7294 31.9315L23.739 31.9409C23.7517 31.953 23.7647 31.9642 23.7775 31.9762C23.797 31.9956 23.8157 32.016 23.8354 32.0351C23.8781 32.0781 23.9216 32.1203 23.9655 32.1624L23.9751 32.1718C23.9877 32.1838 24.001 32.1953 24.0137 32.2072C24.0307 32.2242 24.0471 32.2422 24.0643 32.2591C24.1018 32.297 24.139 32.3352 24.1775 32.3721C24.2114 32.4058 24.2465 32.438 24.2811 32.4711L24.2908 32.4806C24.3006 32.4899 24.3098 32.4996 24.3197 32.5088C24.3427 32.5319 24.3663 32.5545 24.3895 32.5772C24.4306 32.6185 24.4726 32.6594 24.5148 32.6997L24.5268 32.7114C24.5366 32.7207 24.546 32.7305 24.5558 32.7397C24.5844 32.7684 24.6133 32.7963 24.6425 32.8245C24.6604 32.8424 24.6798 32.8587 24.6979 32.8764C24.7417 32.9207 24.7853 32.9652 24.8305 33.0083L24.8425 33.0201C24.8544 33.0313 24.8667 33.042 24.8786 33.0531C24.9025 33.077 24.9267 33.1003 24.951 33.1239C24.979 33.1521 25.0067 33.181 25.0353 33.2087C25.0588 33.2322 25.0836 33.2538 25.1076 33.277C25.1377 33.3073 25.1684 33.3369 25.1992 33.3666C25.2283 33.3957 25.2563 33.4252 25.2859 33.4537C25.309 33.4767 25.3324 33.4994 25.3558 33.522C25.3843 33.5505 25.4134 33.5789 25.4425 33.6068C25.4659 33.6301 25.491 33.6522 25.5149 33.6752C25.5519 33.7123 25.5899 33.7498 25.6281 33.7859L25.633 33.7907C25.6394 33.7968 25.6457 33.8034 25.6522 33.8095C25.6846 33.8424 25.7177 33.8741 25.751 33.9061C25.7799 33.9351 25.8081 33.9649 25.8377 33.9933C25.8718 34.0273 25.9086 34.059 25.9437 34.0923C25.9453 34.0938 25.947 34.0953 25.9486 34.097C25.9491 34.0975 25.9481 34.0989 25.9486 34.0993C25.9511 34.1017 25.9534 34.1041 25.9558 34.1064C25.9946 34.146 26.0337 34.1858 26.0739 34.2243C26.107 34.2574 26.141 34.2887 26.1751 34.3209C26.1783 34.324 26.1815 34.3271 26.1847 34.3303C26.2009 34.3454 26.2166 34.3601 26.2329 34.3751C26.2437 34.3858 26.2534 34.3974 26.2642 34.4081C26.2713 34.4146 26.2789 34.4205 26.2859 34.4269C26.2921 34.4335 26.299 34.4392 26.3052 34.4458C26.3234 34.4641 26.3424 34.4817 26.3606 34.5C29.0359 33.2743 31.3288 31.3831 33.0149 29.0435C33.0108 29.0397 33.007 29.0356 33.0028 29.0318C32.9789 29.0073 32.9556 28.9841 32.9305 28.961C32.9068 28.9367 32.8807 28.9132 32.8558 28.8903C32.832 28.866 32.8085 28.8425 32.7835 28.8196C32.7599 28.7955 32.7359 28.7716 32.7112 28.7489C32.6871 28.7242 32.6618 28.7012 32.6365 28.6781C32.6127 28.6538 32.5892 28.6302 32.5642 28.6074C32.5403 28.5829 32.5171 28.5595 32.4918 28.5367C32.4749 28.5194 32.4565 28.5038 32.4388 28.4872C32.409 28.4555 32.3769 28.4243 32.3448 28.3953C32.3209 28.3708 32.2978 28.3473 32.2725 28.3246C32.2493 28.3008 32.2248 28.2783 32.2002 28.2563C32.1757 28.2311 32.1515 28.2065 32.1255 28.1832C32.1036 28.1608 32.0812 28.1404 32.058 28.1196C32.035 28.0956 32.0127 28.0733 31.9882 28.0513C31.965 28.0271 31.9406 28.0052 31.9158 27.983C31.8888 27.9546 31.8632 27.9261 31.8339 27.9005C31.8146 27.8808 31.794 27.8622 31.7737 27.844C31.746 27.8147 31.717 27.7876 31.6869 27.7615C31.6634 27.7374 31.6398 27.7125 31.6146 27.6907C31.6041 27.6799 31.5919 27.6705 31.5809 27.6601C31.5742 27.6533 31.5683 27.6457 31.5616 27.639C31.559 27.6367 31.5569 27.6341 31.5543 27.6319C31.5423 27.6191 31.5308 27.6062 31.5182 27.5942C31.4968 27.5722 31.4749 27.5498 31.4531 27.5282C31.446 27.521 31.4385 27.5142 31.4314 27.507C31.4097 27.4843 31.3884 27.4611 31.3664 27.4387C31.3321 27.4029 31.2978 27.3677 31.2628 27.3327C31.2584 27.3282 31.2551 27.323 31.2507 27.3185C31.2127 27.2787 31.1739 27.2395 31.1351 27.2007C31.1319 27.1974 31.1286 27.1945 31.1255 27.1912C31.0994 27.1639 31.0749 27.1357 31.0484 27.1088C31.0141 27.0731 30.9797 27.0376 30.9447 27.0028C30.9238 26.9813 30.9033 26.9603 30.8821 26.9391C30.8742 26.9311 30.8658 26.9235 30.8579 26.9155C30.8233 26.8795 30.7896 26.8424 30.7543 26.8071C30.7457 26.7982 30.7365 26.79 30.7278 26.7812C30.6939 26.7459 30.6612 26.7097 30.6266 26.6752C30.6056 26.6537 30.5851 26.6327 30.5639 26.6115C30.5623 26.6099 30.5606 26.6084 30.559 26.6068C30.5183 26.5641 30.4778 26.5211 30.4361 26.4795C30.4341 26.4775 30.4333 26.4744 30.4313 26.4724C30.4061 26.446 30.3797 26.4206 30.3542 26.3947C30.3184 26.3574 30.2822 26.3204 30.2458 26.2839C30.2442 26.2823 30.2425 26.2808 30.2409 26.2792C30.2003 26.2366 30.1596 26.1934 30.118 26.1519C30.1169 26.1507 30.1168 26.1484 30.1156 26.1471C30.092 26.1223 30.0673 26.0985 30.0433 26.0741C30.0052 26.0343 29.9665 25.9952 29.9277 25.9562C29.9269 25.9554 29.926 25.9547 29.9253 25.9539C29.8997 25.9271 29.8742 25.9002 29.8482 25.8738C29.8112 25.8352 29.7751 25.796 29.7373 25.7583C29.7334 25.7543 29.7292 25.7506 29.7253 25.7466C29.6867 25.7063 29.649 25.6658 29.6096 25.6264C29.5887 25.605 29.5681 25.5839 29.547 25.5627C29.5438 25.5595 29.5405 25.5565 29.5373 25.5533C29.5307 25.5464 29.5247 25.539 29.5181 25.5321C29.4537 25.4539 29.3886 25.3763 29.3229 25.2942C29.3077 25.2828 29.2945 25.2722 29.2795 25.2612C29.2741 25.2544 29.268 25.2491 29.2626 25.2423C29.26 25.2321 29.2533 25.2281 29.2457 25.2187C29.2281 25.2054 29.2124 25.1938 29.1952 25.181C29.1891 25.1678 29.1807 25.1583 29.1686 25.1433C29.1553 25.1333 29.1433 25.1248 29.1301 25.115C29.1209 25.0998 29.1069 25.0871 29.0915 25.0679C29.0787 25.0583 29.0681 25.0491 29.0554 25.0396C29.0446 25.0258 29.0319 25.0136 29.0168 24.9949C29.0054 24.9863 28.9943 24.9796 28.9831 24.9713C28.9703 24.9555 28.9568 24.9407 28.9397 24.9194C28.9273 24.9101 28.9157 24.9025 28.9035 24.8934C28.8904 24.8783 28.8787 24.8641 28.8626 24.844C28.8507 24.8351 28.8405 24.8267 28.8288 24.8181C28.815 24.8023 28.8019 24.7892 28.7854 24.7686C28.7744 24.7604 28.7649 24.7531 28.7541 24.745C28.7395 24.7285 28.7254 24.7145 28.7083 24.6931C28.6973 24.6849 28.6878 24.6776 28.677 24.6695C28.6621 24.6526 28.6483 24.639 28.6312 24.6176C28.6196 24.609 28.6088 24.6026 28.5974 24.594C28.583 24.5776 28.5727 24.5649 28.5565 24.5446C28.5448 24.5358 28.5343 24.5272 28.5227 24.5187C28.5078 24.5017 28.4959 24.4898 28.4793 24.4692C28.4684 24.461 28.4587 24.4537 28.448 24.4456C28.4324 24.4278 28.4195 24.4153 28.4022 24.3937C28.3904 24.3849 28.3801 24.3765 28.3685 24.3678C28.3536 24.3507 28.3413 24.3386 28.325 24.3183C28.3132 24.3094 28.303 24.3011 28.2913 24.2924C28.2763 24.2751 28.2641 24.2632 28.2479 24.2429C28.2361 24.234 28.2258 24.2257 28.2141 24.217C28.2001 24.2007 28.1857 24.1862 28.1707 24.1675C28.1597 24.1592 28.1503 24.1521 28.1394 24.1439C28.1251 24.1273 28.1112 24.1134 28.096 24.0945C28.0846 24.0859 28.0735 24.0792 28.0622 24.0709C28.0474 24.0536 28.0346 24.0387 28.0188 24.019C28.0066 24.0098 27.9948 24.002 27.9827 23.9931C27.9685 23.9765 27.9566 23.9622 27.9417 23.9436C27.9302 23.935 27.9193 23.9284 27.908 23.92C27.8932 23.9027 27.8801 23.8876 27.8645 23.8681C27.8528 23.8592 27.8424 23.8509 27.8308 23.8422C27.8164 23.8253 27.8025 23.8115 27.7874 23.7927C27.7749 23.7834 27.7635 23.7759 27.7512 23.7668C27.7372 23.7502 27.7249 23.7357 27.7103 23.7173C27.6993 23.7091 27.6898 23.7018 27.679 23.6937C27.6639 23.6759 27.649 23.6616 27.6332 23.6419C27.6215 23.6331 27.6109 23.6268 27.5994 23.6183C27.5851 23.6013 27.5733 23.5874 27.5585 23.5688C27.5462 23.5596 27.5344 23.5518 27.5223 23.5429C27.508 23.5258 27.4963 23.512 27.4814 23.4934C27.4699 23.4848 27.4589 23.4782 27.4476 23.4698C27.4327 23.4521 27.4198 23.4374 27.4042 23.4179C27.3924 23.409 27.3821 23.4007 27.3704 23.392C27.3559 23.3747 27.3421 23.3613 27.327 23.3425C27.3151 23.3336 27.305 23.3253 27.2933 23.3166C27.2786 23.2991 27.265 23.2861 27.2498 23.2671C27.2384 23.2585 27.2274 23.252 27.2161 23.2435C27.2012 23.2257 27.1882 23.211 27.1727 23.1917C27.1598 23.182 27.1492 23.1728 27.1365 23.1634C27.1237 23.148 27.1111 23.1351 27.098 23.1186C27.0857 23.1094 27.0739 23.1016 27.0618 23.0927C27.0482 23.0762 27.0349 23.0608 27.0209 23.0432C27.0085 23.0339 26.9968 23.0263 26.9847 23.0173C26.971 23.0007 26.9579 22.9855 26.9438 22.9678C26.9304 22.9577 26.9184 22.9493 26.9052 22.9395C26.8923 22.9239 26.88 22.9091 26.8667 22.8924C26.8543 22.8831 26.8427 22.8755 26.8305 22.8665C26.8169 22.85 26.8036 22.8345 26.7896 22.817C26.7762 22.807 26.7641 22.7985 26.751 22.7887C26.7382 22.7731 26.7257 22.7581 26.7125 22.7416C26.7 22.7323 26.6886 22.7248 26.6763 22.7157C26.6631 22.6996 26.6513 22.6855 26.6378 22.6686C26.6246 22.6586 26.6122 22.6499 26.5992 22.6403C26.586 22.6243 26.5742 22.6101 26.5607 22.5932C26.5483 22.5839 26.5366 22.5762 26.5245 22.5672C26.5106 22.5505 26.4978 22.5355 26.4836 22.5178C26.4703 22.5077 26.4581 22.4991 26.445 22.4895C26.4319 22.4737 26.4198 22.4591 26.4065 22.4424C26.3931 22.4323 26.381 22.4238 26.3679 22.4141C26.3549 22.3983 26.3426 22.3836 26.3294 22.367C26.317 22.3576 26.3055 22.3502 26.2932 22.341C26.2796 22.3244 26.2662 22.309 26.2523 22.2916C26.2398 22.2822 26.2284 22.2748 26.2161 22.2656C26.2029 22.2497 26.191 22.2353 26.1776 22.2185C26.1649 22.209 26.1539 22.1995 26.1414 22.1902C26.1279 22.1738 26.1143 22.1604 26.1005 22.1431C26.0883 22.1339 26.0764 22.1261 26.0643 22.1172C26.0505 22.1004 26.0374 22.0853 26.0234 22.0677C26.011 22.0584 25.9994 22.0508 25.9872 22.0418C25.9733 22.025 25.9604 22.01 25.9463 21.9923C25.934 21.9831 25.9222 21.9754 25.9101 21.9664C25.8963 21.9496 25.8832 21.9345 25.8692 21.9169C25.8568 21.9076 25.8453 21.9 25.833 21.891C25.8192 21.8741 25.8062 21.8592 25.7921 21.8415C25.7796 21.8321 25.7683 21.8247 25.7559 21.8156C25.7422 21.7989 25.729 21.7836 25.715 21.7661C25.7024 21.7567 25.6912 21.7493 25.6788 21.7402C25.6657 21.7241 25.6537 21.7098 25.6403 21.6931C25.627 21.6831 25.6148 21.6745 25.6017 21.6648C25.5885 21.6487 25.5767 21.6345 25.5632 21.6177C25.5505 21.6082 25.5394 21.5986 25.527 21.5894C25.5136 21.573 25.4997 21.5593 25.4861 21.5423C25.4737 21.5329 25.4622 21.5254 25.4499 21.5163C25.4361 21.4995 25.4231 21.4845 25.409 21.4669C25.3957 21.4569 25.3835 21.4483 25.3704 21.4386C25.3573 21.4226 25.3452 21.4082 25.3319 21.3915C25.3194 21.3821 25.3081 21.3747 25.2957 21.3656C25.2819 21.3487 25.2689 21.3337 25.2548 21.3161C25.2424 21.3067 25.2308 21.2992 25.2186 21.2902C25.2055 21.274 25.1935 21.2598 25.1801 21.243C25.1678 21.2338 25.156 21.2261 25.1439 21.2171C25.13 21.2 25.1172 21.1854 25.103 21.1676C25.0904 21.1581 25.0793 21.1486 25.0668 21.1394C25.0533 21.1228 25.0396 21.1094 25.0259 21.0922C25.0135 21.0829 25.0019 21.0753 24.9897 21.0663C24.9759 21.0494 24.9628 21.0343 24.9488 21.0168C24.9365 21.0076 24.9247 20.9999 24.9126 20.9909C24.8988 20.9739 24.8857 20.959 24.8717 20.9414C24.8584 20.9314 24.8462 20.9228 24.8332 20.9132C24.8201 20.8971 24.8079 20.8826 24.7946 20.866C24.7822 20.8567 24.7706 20.8492 24.7584 20.8401C24.7451 20.8238 24.7334 20.8099 24.7199 20.793C24.7067 20.7831 24.6942 20.7742 24.6814 20.7647C24.6682 20.7485 24.6562 20.7343 24.6428 20.7176C24.6304 20.7082 24.6188 20.7007 24.6066 20.6917C24.5927 20.6745 24.5798 20.6599 24.5657 20.6422C24.5524 20.6322 24.5401 20.6235 24.5272 20.6139C24.514 20.5977 24.502 20.5835 24.4886 20.5668C24.4761 20.5574 24.4647 20.5499 24.4525 20.5409C24.4386 20.5238 24.4255 20.509 24.4115 20.4914C24.3991 20.482 24.3875 20.4745 24.3754 20.4655C24.3615 20.4485 24.3484 20.4335 24.3344 20.416C24.321 20.4059 24.309 20.3975 24.2959 20.3877C24.2828 20.3717 24.2706 20.3572 24.2573 20.3406C24.2454 20.3316 24.2353 20.3233 24.2235 20.3147C24.21 20.298 24.1963 20.2847 24.1826 20.2675C24.1694 20.2576 24.157 20.2488 24.1441 20.2393C24.1309 20.2231 24.1189 20.2088 24.1055 20.1921C24.0932 20.1829 24.0815 20.1752 24.0694 20.1662C24.0554 20.1491 24.0425 20.1344 24.0284 20.1168C24.0151 20.1067 24.0029 20.0981 23.9899 20.0885C23.9767 20.0723 23.9647 20.058 23.9513 20.0414C23.9389 20.032 23.9273 20.0244 23.9152 20.0154C23.9013 19.9984 23.8883 19.9835 23.8742 19.966C23.8613 19.9563 23.8507 19.947 23.8381 19.9377C23.8246 19.9212 23.8107 19.9076 23.7971 19.8906C23.7856 19.8819 23.7748 19.8754 23.7634 19.867C23.7493 19.8497 23.7366 19.8352 23.7224 19.8175C23.7102 19.8082 23.6983 19.8005 23.6863 19.7916C23.6723 19.7745 23.6594 19.7597 23.6453 19.7421C23.6322 19.7322 23.6196 19.7233 23.6068 19.7138C23.5936 19.6976 23.5816 19.6834 23.5682 19.6667C23.5558 19.6574 23.5442 19.6497 23.5321 19.6408C23.5181 19.6237 23.5052 19.609 23.4911 19.5913C23.4779 19.5814 23.4655 19.5725 23.4526 19.563C23.4394 19.5468 23.4274 19.5326 23.414 19.5159C23.4015 19.5065 23.3901 19.499 23.3779 19.49C23.364 19.4729 23.351 19.458 23.3369 19.4405C23.324 19.4308 23.3135 19.4216 23.3008 19.4122C23.2879 19.3964 23.2753 19.3837 23.2622 19.3675C23.25 19.3582 23.2381 19.3504 23.2261 19.3415C23.212 19.3243 23.1993 19.3098 23.1851 19.2921C23.1723 19.2825 23.1615 19.273 23.149 19.2638C23.1354 19.2471 23.1217 19.2338 23.108 19.2167C23.0954 19.2072 23.0843 19.1975 23.0719 19.1884C23.0583 19.1716 23.0447 19.1584 23.0309 19.1413C23.0181 19.1316 23.0073 19.1223 22.9948 19.113C22.9812 19.0963 22.9675 19.083 22.9538 19.0659C22.9406 19.0558 22.9282 19.0472 22.9153 19.0376C22.9021 19.0214 22.8901 19.0071 22.8767 18.9905C22.8642 18.981 22.8529 18.9736 22.8406 18.9645C22.8273 18.9482 22.8154 18.9342 22.802 18.9174C22.789 18.9076 22.7762 18.8986 22.7635 18.8891C22.7502 18.8728 22.7383 18.8588 22.7249 18.842C22.7126 18.8327 22.7009 18.825 22.6888 18.8161C22.6747 18.7988 22.6619 18.7843 22.6478 18.7666C22.6356 18.7574 22.6236 18.7495 22.6117 18.7407C22.5977 18.7235 22.5848 18.7088 22.5707 18.6912C22.5582 18.6819 22.5468 18.6743 22.5346 18.6653C22.5206 18.6481 22.5078 18.6334 22.4936 18.6158C22.4813 18.6066 22.4696 18.5988 22.4575 18.5899C22.4435 18.5727 22.4306 18.558 22.4165 18.5404C22.4037 18.5308 22.393 18.5214 22.3804 18.5122C22.3669 18.4955 22.3531 18.4821 22.3394 18.465C22.3279 18.4564 22.317 18.4498 22.3057 18.4414C22.2916 18.4242 22.2788 18.4096 22.2647 18.392C22.2516 18.3821 22.239 18.3731 22.2262 18.3637C22.2129 18.3473 22.201 18.3332 22.1876 18.3166C22.1742 18.3065 22.1621 18.2979 22.1491 18.2883C22.1358 18.2719 22.124 18.2579 22.1105 18.2412C22.0973 18.2312 22.0849 18.2224 22.072 18.2129C22.0592 18.1971 22.0464 18.1819 22.0334 18.1658C22.02 18.1556 22.008 18.1472 21.9949 18.1375C21.9819 18.1215 21.9694 18.1067 21.9563 18.0904C21.9429 18.0804 21.9308 18.0717 21.9178 18.0621C21.9049 18.0462 21.8923 18.0312 21.8793 18.015C21.8658 18.0049 21.8538 17.9964 21.8407 17.9867C21.8284 17.9715 21.817 17.9575 21.8045 17.9419C21.7914 17.932 21.7788 17.923 21.766 17.9137C21.753 17.8977 21.7405 17.8828 21.7274 17.8665C21.7133 17.8559 21.7002 17.8459 21.6865 17.8359C21.6742 17.8208 21.6628 17.8066 21.6504 17.7911C21.6371 17.7812 21.6247 17.7723 21.6118 17.7629C21.5989 17.747 21.5863 17.732 21.5733 17.7157C21.5599 17.7057 21.5477 17.697 21.5347 17.6875C21.5218 17.6716 21.5091 17.6565 21.4962 17.6403C21.4837 17.631 21.4721 17.6233 21.46 17.6144C21.4465 17.5977 21.4326 17.5819 21.4191 17.5649C21.4056 17.5548 21.3936 17.5462 21.3805 17.5367C21.3681 17.5214 21.3568 17.5075 21.3444 17.4919C21.3322 17.4827 21.3201 17.4747 21.3082 17.4659C21.2945 17.449 21.2811 17.4338 21.2673 17.4165C21.2541 17.4065 21.2415 17.3976 21.2287 17.3882C21.2158 17.3722 21.2032 17.3574 21.1902 17.3411C21.1771 17.3313 21.1643 17.3221 21.1516 17.3128C21.1387 17.2969 21.1261 17.2819 21.1131 17.2657C21.1001 17.256 21.0895 17.249 21.0769 17.2398C21.0633 17.2229 21.0497 17.2074 21.036 17.1903C21.0229 17.1805 21.0124 17.1736 20.9998 17.1644C20.9862 17.1476 20.9725 17.1319 20.9589 17.1149C20.9459 17.1051 20.9354 17.0982 20.9227 17.089C20.9098 17.0729 20.8973 17.0582 20.8842 17.0418C20.8713 17.0322 20.8605 17.025 20.848 17.0159C20.8344 16.9991 20.8208 16.9836 20.8071 16.9664C20.7936 16.9563 20.7815 16.9501 20.7685 16.9405C20.7552 16.924 20.7434 16.9078 20.73 16.891C20.717 16.8813 20.7063 16.8743 20.6938 16.8651C20.6802 16.8482 20.6667 16.8328 20.6529 16.8156C20.64 16.806 20.6292 16.7988 20.6167 16.7897C20.6031 16.7729 20.5895 16.7574 20.5758 16.7403C20.5628 16.7305 20.5522 16.7235 20.5396 16.7143C20.526 16.6974 20.5124 16.682 20.4987 16.6649C20.4856 16.6551 20.4752 16.6482 20.4625 16.6389C20.4489 16.6221 20.4352 16.6065 20.4216 16.5895C20.4085 16.5797 20.3981 16.5727 20.3854 16.5635C20.3725 16.5475 20.36 16.5328 20.3469 16.5164C20.334 16.5067 20.3232 16.4996 20.3107 16.4905C20.2971 16.4736 20.2835 16.4581 20.2698 16.441C20.2568 16.4313 20.2462 16.4243 20.2336 16.4151C20.22 16.3982 20.2064 16.3828 20.1927 16.3656C20.1792 16.3554 20.1672 16.3492 20.1541 16.3397C20.1409 16.3232 20.1289 16.3069 20.1156 16.2902C20.1025 16.2804 20.092 16.2735 20.0794 16.2643C20.0658 16.2474 20.0522 16.2319 20.0385 16.2148C20.0265 16.2058 20.0164 16.1997 20.0047 16.1912C19.9904 16.1736 19.9757 16.1574 19.9613 16.1393C19.9484 16.1296 19.9376 16.1225 19.9251 16.1134C19.9121 16.0973 19.8997 16.0827 19.8866 16.0663C19.8738 16.0566 19.8628 16.0494 19.8504 16.0403C19.8367 16.0234 19.8233 16.0081 19.8095 15.9909C19.7966 15.9812 19.7858 15.974 19.7733 15.9649C19.7597 15.9481 19.7461 15.9326 19.7324 15.9155C19.7195 15.9058 19.7087 15.8986 19.6962 15.8895C19.6827 15.8727 19.669 15.8571 19.6553 15.8401C19.6424 15.8304 19.6316 15.8233 19.6191 15.8142C19.6056 15.7973 19.5919 15.7818 19.5782 15.7647C19.5651 15.7549 19.5546 15.748 19.542 15.7388C19.5285 15.722 19.5148 15.7063 19.5011 15.6893C19.4881 15.6795 19.4775 15.6725 19.465 15.6634C19.4519 15.6472 19.4395 15.6326 19.4264 15.6162C19.4137 15.6067 19.4025 15.5992 19.3902 15.5903C19.3764 15.5733 19.3631 15.5581 19.3493 15.5408C19.3365 15.5312 19.3255 15.5239 19.3131 15.5149C19.2994 15.4979 19.286 15.4826 19.2722 15.4654C19.2594 15.4558 19.2484 15.4485 19.2361 15.4395C19.2224 15.4226 19.2088 15.4072 19.1951 15.39C19.1822 15.3803 19.1714 15.3731 19.159 15.3641C19.1454 15.3473 19.1317 15.3318 19.118 15.3146C19.105 15.3048 19.0943 15.2978 19.0819 15.2887C19.0682 15.2718 19.0546 15.2564 19.0409 15.2392C19.0273 15.2291 19.0153 15.2227 19.0024 15.2133C18.9891 15.1969 18.9772 15.1805 18.9638 15.1639C18.9507 15.154 18.9402 15.147 18.9277 15.1379C18.9147 15.1219 18.9021 15.1071 18.8891 15.0908C18.8762 15.0811 18.8654 15.0738 18.853 15.0649C18.8393 15.048 18.8257 15.0325 18.812 15.0154C18.7981 15.005 18.7867 14.9966 18.7735 14.9871C18.7604 14.971 18.748 14.9564 18.7349 14.94C18.7221 14.9303 18.711 14.923 18.6988 14.9141C18.6851 14.8972 18.6715 14.8818 18.6578 14.8646C18.6453 14.8552 18.6337 14.8497 18.6217 14.841C18.6076 14.8237 18.5948 14.8068 18.5807 14.7891C18.5686 14.7801 18.5585 14.774 18.547 14.7655C18.5327 14.7479 18.518 14.7316 18.5035 14.7137C18.4905 14.7039 18.4799 14.6967 18.4674 14.6877C18.4544 14.6716 18.4419 14.657 18.4288 14.6406C18.416 14.6309 18.4049 14.6235 18.3927 14.6147C18.379 14.5977 18.3655 14.5824 18.3517 14.5652C18.3388 14.5555 18.3279 14.5482 18.3156 14.5393C18.3019 14.5224 18.2884 14.5069 18.2746 14.4898C18.2608 14.4793 18.2493 14.471 18.2361 14.4615C18.2231 14.4455 18.2106 14.4307 18.1975 14.4144C18.1845 14.4046 18.1738 14.3974 18.1614 14.3885C18.1477 14.3715 18.1342 14.3562 18.1205 14.339C18.1084 14.33 18.0982 14.3237 18.0867 14.3154C18.0723 14.2977 18.0578 14.2816 18.0433 14.2635C18.0313 14.2545 18.021 14.2482 18.0095 14.2399C17.9958 14.223 17.9824 14.2077 17.9686 14.1905C17.9558 14.1809 17.9445 14.1732 17.9324 14.1645C17.9187 14.1475 17.9053 14.1323 17.8915 14.1151C17.8786 14.1054 17.8675 14.0979 17.8553 14.0891C17.8416 14.0722 17.8281 14.0569 17.8144 14.0397C17.8016 14.03 17.7904 14.0225 17.7782 14.0137C17.7646 13.9969 17.751 13.9814 17.7373 13.9643C17.7243 13.9546 17.7134 13.9471 17.7011 13.9383C17.6876 13.9215 17.6738 13.9059 17.6602 13.8889C17.6471 13.879 17.6364 13.8718 17.624 13.863C17.6105 13.8461 17.5967 13.8305 17.5831 13.8135C17.57 13.8036 17.5593 13.7964 17.5469 13.7876C17.5339 13.7713 17.5215 13.7569 17.5084 13.7404C17.4956 13.7308 17.4843 13.7232 17.4722 13.7145C17.4585 13.6975 17.4451 13.6822 17.4313 13.665C17.4189 13.6558 17.4068 13.6498 17.3951 13.6414C17.381 13.624 17.3683 13.6073 17.3542 13.5896C17.3415 13.58 17.33 13.5721 17.318 13.5636C17.3043 13.5467 17.2908 13.5314 17.2771 13.5142C17.2642 13.5045 17.253 13.4968 17.2409 13.4882C17.2273 13.4713 17.2137 13.4559 17.2 13.4388C17.187 13.429 17.1761 13.4215 17.1638 13.4128C17.1503 13.3959 17.1365 13.3804 17.1229 13.3634C17.1089 13.3529 17.0974 13.3442 17.0843 13.3351C17.0715 13.3191 17.0587 13.3042 17.0458 13.288C17.0326 13.278 17.022 13.2707 17.0096 13.262C16.9966 13.2459 16.9841 13.2312 16.9711 13.2149C16.9582 13.2053 16.947 13.1974 16.9349 13.189C16.9213 13.172 16.9077 13.1566 16.894 13.1395C16.8802 13.1291 16.8682 13.1202 16.8554 13.1112C16.8425 13.0951 16.8299 13.0804 16.8169 13.0641C16.8042 13.0545 16.7926 13.0465 16.7807 13.0382C16.767 13.0212 16.7535 13.0059 16.7398 12.9887C16.7273 12.9793 16.7153 12.9733 16.7036 12.9651C16.6896 12.9477 16.6768 12.931 16.6627 12.9133C16.6506 12.9041 16.6403 12.8976 16.6289 12.8897C16.6146 12.8719 16.5999 12.8558 16.5855 12.8378C16.5724 12.8279 16.5615 12.8203 16.5494 12.8118C16.5364 12.7957 16.5238 12.781 16.5108 12.7647C16.4981 12.7551 16.4865 12.7469 16.4747 12.7388C16.4609 12.7217 16.4474 12.7065 16.4337 12.6893C16.4208 12.6796 16.4094 12.6716 16.3976 12.6634C16.3839 12.6464 16.3703 12.631 16.3566 12.6139C16.3427 12.6035 16.3307 12.5943 16.3181 12.5857C16.3051 12.5696 16.2925 12.5547 16.2795 12.5385C16.2664 12.5287 16.2554 12.5208 16.2434 12.5126C16.2297 12.4956 16.2161 12.4802 16.2024 12.4631C16.189 12.453 16.1784 12.4455 16.1663 12.4372C16.1526 12.4202 16.1391 12.4049 16.1253 12.3877C16.1128 12.3783 16.1007 12.372 16.0892 12.3641C16.0758 12.3475 16.0641 12.3315 16.0506 12.3147C16.0381 12.3053 16.0259 12.2965 16.0145 12.2887C16.0007 12.2718 15.9872 12.2565 15.9735 12.2393C15.9617 12.2304 15.9506 12.2231 15.9398 12.2157C15.9254 12.1979 15.9108 12.1819 15.8964 12.1638C15.8827 12.1536 15.8701 12.1437 15.8578 12.1355C15.8448 12.1195 15.8323 12.1047 15.8193 12.0884C15.8063 12.0787 15.7947 12.0702 15.7831 12.0625C15.7694 12.0456 15.7558 12.0301 15.7422 12.013C15.7293 12.0034 15.7176 11.9971 15.706 11.9894C15.692 11.9721 15.6791 11.9551 15.6651 11.9375C15.6508 11.9268 15.6391 11.9173 15.6265 11.9093C15.6136 11.8932 15.601 11.8784 15.588 11.8621C15.5743 11.8519 15.5638 11.844 15.5518 11.8362C15.5388 11.82 15.5264 11.8054 15.5133 11.7891C15.5002 11.7793 15.4862 11.7705 15.4747 11.7631C15.4613 11.7466 15.4496 11.7305 15.4362 11.7137C15.4237 11.7043 15.4109 11.6948 15.4 11.6878C15.3864 11.6708 15.3728 11.6554 15.3591 11.6383C15.3461 11.6286 15.3342 11.6194 15.3229 11.6124C15.3093 11.5954 15.2957 11.5801 15.282 11.5629C15.2697 11.5537 15.2589 11.5461 15.2482 11.5393C15.2339 11.5215 15.2193 11.5054 15.2048 11.4874C15.1927 11.4783 15.184 11.4727 15.1735 11.4662C15.1585 11.4476 15.1428 11.4309 15.1277 11.412C15.1153 11.4027 15.107 11.3972 15.0964 11.3908C15.082 11.373 15.0675 11.3571 15.053 11.339C15.0407 11.3298 15.0297 11.324 15.0192 11.3178C15.0044 11.2995 14.9907 11.2822 14.9758 11.2636C14.9629 11.2538 14.9529 11.2462 14.942 11.24C14.9276 11.2221 14.9131 11.2063 14.8986 11.1881C14.8862 11.1787 14.8753 11.1726 14.8649 11.1669C14.8501 11.1486 14.8363 11.1312 14.8215 11.1127C14.8066 11.1015 14.7949 11.0924 14.7829 11.0868C14.7696 11.0702 14.7578 11.054 14.7444 11.0373C14.7307 11.027 14.7192 11.0189 14.7082 11.0137C14.6942 10.9963 14.6814 10.9795 14.6673 10.9618C14.6539 10.9517 14.6442 10.9452 14.6335 10.9406C14.6194 10.9232 14.6067 10.9066 14.5926 10.8888C14.5814 10.8804 14.5702 10.8741 14.5613 10.8699C14.5458 10.8507 14.531 10.8328 14.5155 10.8134C14.5037 10.8046 14.4933 10.8005 14.4842 10.7969C14.4683 10.7771 14.4544 10.758 14.4384 10.738C14.4276 10.7299 14.4179 10.7269 14.4095 10.7238C14.3929 10.7033 14.3779 10.6833 14.3613 10.6625C14.3506 10.6545 14.343 10.6506 14.3347 10.6483C14.3179 10.6274 14.3011 10.6083 14.2842 10.587C14.2748 10.58 14.2672 10.5769 14.26 10.5753C14.2425 10.5535 14.2247 10.5337 14.207 10.5116C14.1981 10.5049 14.1922 10.5027 14.1853 10.5022C14.1676 10.4803 14.1502 10.4608 14.1323 10.4386C14.1249 10.433 14.1188 10.429 14.113 10.4291C14.1097 10.4267 14.1067 10.4246 14.1034 10.4221C14.0871 10.4019 14.0715 10.3835 14.0552 10.3632C14.0503 10.3595 14.047 10.356 14.0432 10.3561C14.0356 10.3504 14.029 10.3452 14.0215 10.3396C14.0071 10.3217 13.9926 10.3058 13.9781 10.2877C13.9756 10.2858 13.9728 10.2853 13.9708 10.2854C13.9617 10.2785 13.9533 10.2732 13.9443 10.2665C13.9296 10.2482 13.9158 10.2309 13.9009 10.2123C13.4028 9.83789 13.0444 9.64374 12.6581 9.65626" fill="black" fill-opacity="0.235"/>
<path fill-rule="evenodd" clip-rule="evenodd" d="M20 0.5C8.95451 0.5 0 9.00678 0 19.5C0 29.9932 8.95451 38.5 20 38.5C31.0455 38.5 40 29.9932 40 19.5C40 9.00678 31.0455 0.5 20 0.5ZM20.6923 3.8478C30.1747 3.8478 37.8609 11.1498 37.8609 20.158C37.8609 29.1662 30.1747 36.4682 20.6923 36.4682C11.21 36.4682 3.52133 29.1662 3.52133 20.158C3.52133 11.1498 11.21 3.8478 20.6923 3.8478Z" fill="black" fill-opacity="0.067"/>
<path fill-rule="evenodd" clip-rule="evenodd" d="M19.5 0.5C8.73031 0.5 0 9.00646 0 19.5C0 29.9935 8.73031 38.5 19.5 38.5C30.2697 38.5 39 29.9935 39 19.5C39 9.00646 30.2697 0.5 19.5 0.5ZM19.9562 3.41197C29.3275 3.41197 36.9238 10.8135 36.9238 19.9445C36.9238 29.0756 29.3275 36.4771 19.9562 36.4771C10.5848 36.4771 2.9862 29.0756 2.9862 19.9445C2.9862 10.8135 10.5848 3.41197 19.9562 3.41197Z" fill="black" fill-opacity="0.129"/>
<path fill-rule="evenodd" clip-rule="evenodd" d="M20.5 1.5C9.73027 1.5 1 9.78257 1 20C1 30.2174 9.73027 38.5 20.5 38.5C31.2697 38.5 40 30.2174 40 20C40 9.78257 31.2697 1.5 20.5 1.5ZM20.7317 3.86748C30.2517 3.86748 37.9686 11.1886 37.9686 20.2205C37.9686 29.2523 30.2517 36.5734 20.7317 36.5734C11.2116 36.5734 3.49238 29.2523 3.49238 20.2205C3.49238 11.1886 11.2116 3.86748 20.7317 3.86748Z" fill="black" fill-opacity="0.129"/>
<path fill-rule="evenodd" clip-rule="evenodd" d="M20 1.5C14.5474 1.5 9.63135 3.69215 6.16646 7.20333C2.96305 10.4495 1 14.8232 1 19.6344C1 24.0177 2.62937 28.0377 5.3415 31.1728C7.00609 33.097 9.07856 34.6879 11.4325 35.8248C14.0068 37.0682 16.9177 37.7687 20 37.7687C30.4938 37.7687 39 29.6494 39 19.6344C39 9.61864 30.493 1.5 20 1.5ZM20 3.44494C29.3687 3.44494 36.9628 10.6931 36.9628 19.6349C36.9628 28.5767 29.3687 35.8248 20 35.8248C10.6313 35.8248 3.03491 28.5767 3.03491 19.6349C3.03491 10.6931 10.6313 3.44494 20 3.44494Z" fill="url(#paint0_linear_2216_1116)"/>
<path d="M5.3415 31.1728L3.03491 39.5L11.4325 35.8248C9.07856 34.6879 7.00609 33.097 5.3415 31.1728Z" fill="url(#paint1_linear_2216_1116)"/>
<path d="M5.3415 31.1728C2.62937 28.0377 1 24.0177 1 19.6344C1 14.8232 2.96305 10.4495 6.16646 7.20333C9.63135 3.69215 14.5474 1.5 20 1.5C30.493 1.5 39 9.61864 39 19.6344C39 29.6494 30.4938 37.7687 20 37.7687C16.9177 37.7687 14.0068 37.0682 11.4325 35.8248M5.3415 31.1728L3.03491 39.5L11.4325 35.8248M5.3415 31.1728C7.00609 33.097 9.07856 34.6879 11.4325 35.8248M20 3.44494C29.3687 3.44494 36.9628 10.6931 36.9628 19.6349C36.9628 28.5767 29.3687 35.8248 20 35.8248C10.6313 35.8248 3.03491 28.5767 3.03491 19.6349C3.03491 10.6931 10.6313 3.44494 20 3.44494Z" stroke="url(#paint2_linear_2216_1116)" stroke-width="1.4"/>
<path d="M9 12.765C9.0975 13.6906 9.50966 14.8532 10.1586 16.1324C11.3034 18.39 12.9861 21.1993 15.3778 23.3327C19.3373 26.8649 23.9127 29.4128 26.3179 29.5C27.7335 29.0731 29.0341 28.0028 29.6224 26.8194C29.9897 26.3669 30.1399 25.836 29.8406 25.4269C28.9394 24.1946 27.6253 23.272 26.4313 22.6825C25.435 22.1909 25.1164 21.6827 24.0044 21.9197C23.0613 22.5543 22.7761 22.8933 21.8125 23.8781C18.4868 23.3878 14.7411 19.2201 15.0886 17.1947C15.4649 16.7088 15.8179 16.4283 16.1258 16.1847C16.5964 15.8125 16.9613 15.5269 17.1418 14.7278C16.6141 12.6959 15.4484 11.9011 13.9315 10.048C13.0407 9.39336 12.5961 9.29733 11.6394 9.9117C10.6914 10.7419 9.51866 11.3506 9.11882 12.4411L9 12.765Z" fill="url(#paint3_linear_2216_1116)" stroke="url(#paint4_linear_2216_1116)" stroke-width="0.0714155"/>
<path d="M22 14.5C23.699 14.6323 24.8752 15.4136 25 17.5" stroke="url(#paint5_linear_2216_1116)" stroke-width="0.928666" stroke-linecap="round" stroke-linejoin="round"/>
<path d="M21 12.5C24.6477 12.8771 26.802 14.7255 27 18.5" stroke="url(#paint6_linear_2216_1116)" stroke-width="0.928666" stroke-linecap="round" stroke-linejoin="round"/>
<path d="M20 9.5C26.4772 9.8574 29.5086 13.1113 30 18.5" stroke="url(#paint7_linear_2216_1116)" stroke-width="0.928666" stroke-linecap="round" stroke-linejoin="round"/>
<defs>
<linearGradient id="paint0_linear_2216_1116" x1="20" y1="1.5" x2="20" y2="39.5" gradientUnits="userSpaceOnUse">
<stop stop-color="#623F3F"/>
<stop offset="1" stop-color="#331717"/>
</linearGradient>
<linearGradient id="paint1_linear_2216_1116" x1="20" y1="1.5" x2="20" y2="39.5" gradientUnits="userSpaceOnUse">
<stop stop-color="#623F3F"/>
<stop offset="1" stop-color="#331717"/>
</linearGradient>
<linearGradient id="paint2_linear_2216_1116" x1="20" y1="1.5" x2="20" y2="39.5" gradientUnits="userSpaceOnUse">
<stop stop-color="#623F3F"/>
<stop offset="1" stop-color="#331717"/>
</linearGradient>
<linearGradient id="paint3_linear_2216_1116" x1="19.5" y1="9.5" x2="19.5" y2="29.5" gradientUnits="userSpaceOnUse">
<stop stop-color="#623F3F"/>
<stop offset="1" stop-color="#331717"/>
</linearGradient>
<linearGradient id="paint4_linear_2216_1116" x1="19.5" y1="9.5" x2="19.5" y2="29.5" gradientUnits="userSpaceOnUse">
<stop stop-color="#623F3F"/>
<stop offset="1" stop-color="#331717"/>
</linearGradient>
<linearGradient id="paint5_linear_2216_1116" x1="23.5" y1="14.5" x2="23.5" y2="17.5" gradientUnits="userSpaceOnUse">
<stop stop-color="#623F3F"/>
<stop offset="1" stop-color="#331717"/>
</linearGradient>
<linearGradient id="paint6_linear_2216_1116" x1="24" y1="12.5" x2="24" y2="18.5" gradientUnits="userSpaceOnUse">
<stop stop-color="#623F3F"/>
<stop offset="1" stop-color="#331717"/>
</linearGradient>
<linearGradient id="paint7_linear_2216_1116" x1="25" y1="9.5" x2="25" y2="18.5" gradientUnits="userSpaceOnUse">
<stop stop-color="#623F3F"/>
<stop offset="1" stop-color="#331717"/>
</linearGradient>
</defs>
</svg>
