<svg width="40" height="41" viewBox="0 0 40 41" fill="none" xmlns="http://www.w3.org/2000/svg">
<path d="M19.5993 9.00003C19.4104 8.99792 19.2355 9.09556 19.1391 9.2545C19.0428 9.41343 19.0393 9.60939 19.1319 9.77052C19.1666 9.83091 19.2128 9.88233 19.2668 9.92365C19.2904 9.95109 19.3154 9.97718 19.3439 9.99904C19.3675 10.0265 19.3925 10.0526 19.421 10.0744C19.4412 10.0979 19.4622 10.121 19.4861 10.1404C19.5118 10.1719 19.5407 10.2007 19.5728 10.2252C19.5963 10.2525 19.6215 10.2789 19.6499 10.3006C19.6734 10.3278 19.6986 10.352 19.727 10.3737C19.7506 10.4011 19.7756 10.4272 19.8041 10.4491C19.8277 10.4765 19.8527 10.5026 19.8812 10.5245C19.9014 10.5479 19.9224 10.5711 19.9463 10.5905C19.9689 10.6181 19.9959 10.6435 20.0234 10.6659C20.0491 10.6974 20.078 10.7261 20.1101 10.7507C20.1336 10.7779 20.1588 10.802 20.1872 10.8237C20.2108 10.8512 20.2358 10.8773 20.2643 10.8991C20.2879 10.9266 20.3129 10.9527 20.3414 10.9745C20.3649 11.0018 20.3901 11.0282 20.4185 11.0499C20.4387 11.0734 20.4597 11.0965 20.4836 11.1159C20.5093 11.1474 20.5382 11.1761 20.5703 11.2007C20.5938 11.2279 20.619 11.2521 20.6474 11.2738C20.671 11.3012 20.696 11.3273 20.7245 11.3492C20.7481 11.3766 20.7731 11.4027 20.8016 11.4246C20.8049 11.4284 20.8078 11.4326 20.8112 11.4363C20.6915 11.4209 20.5698 11.4063 20.4474 11.3939C20.4298 11.3915 20.4122 11.3899 20.3944 11.3891C20.3767 11.3882 20.359 11.3882 20.3413 11.3891C20.0609 11.4033 19.8408 11.6306 19.8402 11.9052C19.8398 12.067 19.9155 12.2104 20.0353 12.3057C20.0571 12.3318 20.0811 12.3549 20.1076 12.3765C20.1304 12.4045 20.1565 12.4289 20.1847 12.4519C20.2089 12.4816 20.2364 12.508 20.2667 12.532C20.2895 12.5593 20.3157 12.5852 20.3438 12.6074C20.3666 12.6347 20.3928 12.6606 20.4209 12.6828C20.4435 12.7099 20.4678 12.7338 20.4956 12.7559C20.5186 12.7835 20.5445 12.8088 20.5727 12.8313C20.5944 12.8573 20.6185 12.8804 20.645 12.902C20.6691 12.9318 20.6967 12.9581 20.727 12.9821C20.7498 13.0094 20.776 13.0353 20.8041 13.0575C20.8269 13.0848 20.8531 13.1107 20.8812 13.1329C20.9038 13.16 20.928 13.1839 20.9559 13.206C20.9788 13.2336 21.0047 13.2589 21.033 13.2814C21.0547 13.3075 21.0788 13.3305 21.1053 13.3521C21.128 13.3801 21.1542 13.4046 21.1824 13.4275C21.2065 13.4573 21.234 13.4837 21.2643 13.5076C21.2871 13.5349 21.3134 13.5608 21.3414 13.583C21.3637 13.6097 21.3888 13.6342 21.4161 13.6561C21.4391 13.6837 21.465 13.709 21.4932 13.7315C21.515 13.7576 21.539 13.7807 21.5655 13.8022C21.5883 13.8303 21.6144 13.8547 21.6426 13.8776C21.6668 13.9074 21.6943 13.9338 21.7246 13.9578C21.7399 13.9761 21.7574 13.9935 21.7752 14.0096C21.5907 13.9781 21.4014 13.9559 21.209 13.9413C21.1914 13.9397 21.1737 13.9389 21.1559 13.939C20.8734 13.9432 20.6439 14.1646 20.6355 14.4408C20.6304 14.6081 20.709 14.7596 20.8331 14.8578C20.8593 14.8893 20.8892 14.918 20.9222 14.9427C20.9434 14.9668 20.9643 14.9911 20.9897 15.011C21.0134 15.0393 21.0422 15.0636 21.0717 15.0864C21.0949 15.114 21.12 15.1395 21.1488 15.1618C21.1712 15.1886 21.1959 15.213 21.2235 15.2348C21.2474 15.2639 21.2754 15.2893 21.3054 15.3126C21.3307 15.3429 21.3578 15.3712 21.3898 15.3951C21.4111 15.4199 21.4337 15.4431 21.4596 15.4634C21.4853 15.4946 21.5137 15.5215 21.5463 15.5458C21.5675 15.5706 21.5904 15.5939 21.6162 15.6142C21.639 15.642 21.6648 15.6672 21.6933 15.6896C21.7188 15.7209 21.7497 15.7499 21.7824 15.7744C21.8059 15.8017 21.8304 15.8281 21.8595 15.8498C21.8829 15.877 21.9076 15.9035 21.9366 15.9252C21.9601 15.9527 21.9869 15.9788 22.0161 16.0006C22.0395 16.0282 22.064 16.0542 22.0932 16.076C22.1166 16.1034 22.1436 16.1296 22.1727 16.1514C22.196 16.179 22.2206 16.205 22.2498 16.2268C22.2733 16.2547 22.2974 16.2801 22.3269 16.3022C22.3503 16.3301 22.3768 16.3555 22.4064 16.3775C22.4296 16.4051 22.4543 16.4312 22.4835 16.4529C22.5067 16.4806 22.5338 16.5066 22.563 16.5283C22.5863 16.5564 22.6105 16.5817 22.64 16.6037C22.6634 16.6319 22.69 16.657 22.7195 16.6791C22.7426 16.7069 22.7675 16.7327 22.7966 16.7545C22.8197 16.7824 22.8445 16.8081 22.8737 16.8299C22.8953 16.8562 22.9189 16.8796 22.946 16.9007C22.9709 16.9321 23.0002 16.9615 23.0328 16.9855C23.0552 17.0123 23.0817 17.0374 23.1099 17.0585C23.1327 17.0863 23.158 17.1123 23.187 17.1339C23.2098 17.1618 23.2374 17.1876 23.2665 17.2093C23.2898 17.2379 23.316 17.265 23.346 17.2871C23.3693 17.3153 23.3955 17.3407 23.4254 17.3625C23.4483 17.3902 23.4733 17.4164 23.5025 17.4379C23.5264 17.4669 23.5536 17.4935 23.5845 17.5156C23.6073 17.5429 23.6324 17.57 23.6616 17.591C23.6706 17.6019 23.6804 17.6116 23.6905 17.6216C23.7247 17.686 23.7731 17.7418 23.8303 17.7866C23.8531 17.8137 23.8795 17.8375 23.9074 17.8596C23.9303 17.8875 23.9562 17.9125 23.9845 17.935C24.0094 17.9653 24.0377 17.9912 24.0688 18.0152C24.0919 18.0426 24.1175 18.0685 24.1459 18.0906C24.1739 18.1241 24.2042 18.1547 24.2399 18.1801C24.2602 18.2025 24.2809 18.2252 24.305 18.2438C24.3283 18.2714 24.3557 18.297 24.3845 18.3192C24.4084 18.3475 24.4343 18.3744 24.4639 18.3969C24.4858 18.4228 24.5095 18.4466 24.5363 18.4676C24.5605 18.497 24.5903 18.5222 24.6206 18.5454C24.644 18.5732 24.6688 18.601 24.6977 18.6231C24.7205 18.6503 24.7466 18.6744 24.7748 18.6962C24.7973 18.7234 24.824 18.7473 24.8519 18.7692C24.8768 18.7997 24.9047 18.8279 24.9362 18.8517C24.9582 18.8777 24.984 18.9015 25.0109 18.9224C25.0342 18.9508 25.0613 18.9753 25.0904 18.9978C25.1146 19.0273 25.1419 19.0525 25.1724 19.0756C25.1944 19.102 25.2175 19.1273 25.2447 19.1486C25.2678 19.177 25.2952 19.2015 25.3242 19.224C25.3473 19.2526 25.3745 19.2769 25.4037 19.2994C25.4279 19.3294 25.4546 19.3562 25.4856 19.3796C25.5078 19.4065 25.5326 19.4312 25.5603 19.4526C25.5828 19.4803 25.6091 19.5061 25.6374 19.528C25.6608 19.5572 25.6896 19.5806 25.7194 19.6034C25.7456 19.6358 25.7744 19.6639 25.8085 19.6882C25.8326 19.7164 25.8578 19.7444 25.888 19.766C25.9077 19.7887 25.9293 19.8111 25.9531 19.8296C25.9751 19.8573 26.0022 19.8807 26.0302 19.9027C26.0322 19.9052 26.0353 19.9072 26.0374 19.9097C26.04 19.9117 26.042 19.9149 26.0447 19.9168C26.0658 19.9415 26.0885 19.9655 26.1145 19.9851C26.1396 20.016 26.1687 20.0444 26.2012 20.0676C26.2216 20.0916 26.2437 20.1144 26.2687 20.1336C26.2943 20.1657 26.3243 20.1944 26.3578 20.2184C26.3797 20.2442 26.4029 20.2689 26.4302 20.2891C26.4547 20.3193 26.4827 20.3466 26.5145 20.3693C26.5349 20.3938 26.5566 20.4158 26.582 20.4353C26.6073 20.4677 26.6375 20.496 26.6711 20.5201C26.6944 20.5481 26.7208 20.5742 26.7506 20.5955C26.7713 20.6204 26.7945 20.6443 26.8204 20.6638C26.8454 20.6957 26.8741 20.7227 26.9072 20.7463C26.9279 20.7715 26.9509 20.7948 26.977 20.8146C27.0017 20.846 27.0311 20.8738 27.0637 20.8971C27.0839 20.9216 27.1082 20.9437 27.1336 20.963C27.1569 20.9936 27.1846 21.0178 27.2155 21.0408C27.2372 21.0687 27.2621 21.0923 27.2902 21.1138C27.312 21.1423 27.3389 21.1673 27.3673 21.1892C27.3902 21.2198 27.4187 21.244 27.4493 21.267C27.4718 21.2965 27.499 21.32 27.5288 21.3424C27.5521 21.373 27.5795 21.3997 27.6107 21.4225C27.6319 21.4496 27.6555 21.4748 27.6831 21.4956C27.7056 21.5253 27.7349 21.5486 27.765 21.571C27.7877 21.6007 27.8142 21.6265 27.8445 21.6487C27.8674 21.6784 27.8959 21.7021 27.9265 21.7241C27.9473 21.7509 27.9716 21.7742 27.9988 21.7948C28.0214 21.8255 28.0475 21.8522 28.0783 21.875C28.1003 21.9041 28.1282 21.9286 28.1577 21.9504C28.1802 21.9801 28.2094 22.0037 28.2397 22.0258C28.2611 22.054 28.2858 22.08 28.3144 22.1012C28.3363 22.1305 28.3644 22.1548 28.3939 22.1766C28.4156 22.2057 28.4441 22.2303 28.4734 22.2519C28.4956 22.2818 28.5226 22.3078 28.5529 22.3297C28.5751 22.3595 28.6021 22.3833 28.6324 22.4051C28.6543 22.4345 28.6797 22.4589 28.7095 22.4805C28.7314 22.51 28.759 22.5343 28.7889 22.5559C28.8104 22.5847 28.8369 22.61 28.866 22.6313C28.8887 22.6623 28.9165 22.6868 28.948 22.709C28.9697 22.7381 28.9956 22.7632 29.0251 22.7844C29.0468 22.8136 29.0749 22.8386 29.1046 22.8598C29.1259 22.8885 29.1525 22.9142 29.1817 22.9352C29.204 22.9659 29.2323 22.9911 29.2636 23.0129C29.2857 23.0426 29.3127 23.0671 29.3431 23.0883C29.3649 23.1176 29.3902 23.1428 29.4202 23.1637C29.4411 23.1919 29.4686 23.2163 29.4973 23.2368C29.5187 23.2666 29.5445 23.2908 29.5744 23.3122C29.5749 23.3126 29.5763 23.3118 29.5768 23.3122C29.5776 23.3128 29.5783 23.3139 29.5792 23.3145C29.5796 23.3149 29.5788 23.3166 29.5792 23.3169C29.5999 23.3448 29.6254 23.3673 29.6539 23.3876C29.6547 23.3883 29.6554 23.3892 29.6563 23.3899C29.6572 23.3906 29.6577 23.3917 29.6587 23.3923C29.6595 23.393 29.6602 23.3939 29.6611 23.3946C29.6776 23.4165 29.6973 23.4364 29.7189 23.4535C29.7238 23.4577 29.7281 23.4637 29.7334 23.4677C29.7338 23.468 29.7354 23.4673 29.7358 23.4677C29.7361 23.4679 29.7355 23.4698 29.7358 23.47C29.7441 23.4812 29.755 23.4906 29.7647 23.5006C29.7674 23.5036 29.7692 23.5072 29.7719 23.51C29.7802 23.5179 29.7894 23.5242 29.7985 23.5312C29.8028 23.5348 29.806 23.5397 29.8105 23.543C29.811 23.5433 29.8123 23.5426 29.8129 23.543C29.8137 23.5436 29.8144 23.5447 29.8153 23.5453C29.821 23.553 29.8282 23.5594 29.8345 23.5665C29.8537 23.5901 29.8742 23.6105 29.8996 23.6278C29.9205 23.6572 29.9467 23.6824 29.9767 23.7032C29.9984 23.7338 30.0249 23.7596 30.0562 23.7809C30.0771 23.8098 30.1013 23.8357 30.1309 23.8563C30.1523 23.8865 30.1773 23.9127 30.208 23.9341C30.229 23.9636 30.2551 23.9907 30.2851 24.0118C30.3061 24.0412 30.3323 24.0661 30.3622 24.0872C30.3835 24.117 30.409 24.1436 30.4393 24.1649C30.4607 24.1948 30.4885 24.2212 30.5188 24.2427C30.5401 24.2721 30.5659 24.2992 30.5959 24.3204C30.6174 24.35 30.6427 24.3744 30.673 24.3958C30.695 24.4261 30.7215 24.4518 30.7525 24.4735C30.774 24.5028 30.7996 24.5301 30.8296 24.5513C30.8511 24.5804 30.8767 24.6079 30.9066 24.629C30.9276 24.657 30.9527 24.6813 30.9814 24.702C31.0036 24.7329 31.0295 24.7599 31.0608 24.7822C31.0824 24.811 31.1084 24.8387 31.1379 24.8599C31.1605 24.8902 31.1886 24.9158 31.2199 24.9377C31.2409 24.9652 31.2638 24.9902 31.2922 25.0107C31.3149 25.0416 31.3402 25.0685 31.3717 25.0909C31.394 25.1204 31.4207 25.147 31.4512 25.1686C31.4732 25.1973 31.4984 25.2252 31.5283 25.2463C31.5504 25.2751 31.5755 25.3005 31.6054 25.3217C31.626 25.3485 31.6503 25.3744 31.6777 25.3948C31.7004 25.4254 31.7285 25.4524 31.7597 25.4749C31.7825 25.5049 31.8081 25.533 31.8391 25.5551C31.8609 25.583 31.8849 25.6072 31.9138 25.6281C31.9364 25.6576 31.963 25.6839 31.9933 25.7059C32.0155 25.7345 32.0408 25.7622 32.0704 25.7836C32.093 25.8127 32.1173 25.842 32.1475 25.8638C32.1697 25.8919 32.1954 25.9156 32.2246 25.9368C32.2462 25.9646 32.2709 25.991 32.2993 26.0122C32.3225 26.0424 32.3502 26.0698 32.3813 26.0924C32.404 26.1214 32.4282 26.1459 32.4584 26.1678C32.4802 26.1957 32.5045 26.2218 32.5331 26.2432C32.5561 26.2731 32.5818 26.3007 32.6126 26.3233C32.6355 26.3523 32.6619 26.3792 32.6921 26.401C32.7137 26.4282 32.7362 26.4531 32.7644 26.4741C32.7871 26.5035 32.8139 26.5294 32.8439 26.5518C32.8662 26.5803 32.8917 26.6077 32.921 26.6296C32.9442 26.6591 32.9699 26.6873 33.0005 26.7097C33.023 26.7378 33.0483 26.7636 33.0776 26.7851C33.1001 26.8134 33.1254 26.8387 33.1547 26.8605C33.1774 26.8893 33.2021 26.9162 33.2318 26.9382C33.2552 26.9677 33.2806 26.9958 33.3112 27.0184C33.3328 27.0451 33.3583 27.0682 33.3859 27.0891C33.4092 27.1184 33.4352 27.1466 33.4654 27.1693C33.4883 27.1978 33.513 27.225 33.5425 27.247C33.5654 27.2754 33.5901 27.3027 33.6196 27.3247C33.6425 27.3529 33.6697 27.3783 33.6991 27.4001C33.7114 27.4152 33.7241 27.431 33.7377 27.4449C34.9533 25.4388 35.7484 23.1611 36 20.7255C35.9793 20.7057 35.9582 20.6863 35.9373 20.6667C35.9354 20.6646 35.9345 20.6616 35.9325 20.6596C35.9094 20.6373 35.8859 20.6156 35.8626 20.5936C35.8599 20.5908 35.8581 20.587 35.8554 20.5842C35.8323 20.5619 35.8088 20.5402 35.7855 20.5182C35.7827 20.5154 35.781 20.5116 35.7783 20.5088C35.7709 20.5017 35.7639 20.4946 35.7566 20.4876C35.7155 20.4471 35.6733 20.4071 35.6313 20.3674C35.6301 20.3662 35.6301 20.3639 35.6289 20.3627C35.6281 20.3619 35.6273 20.3611 35.6265 20.3603C35.6009 20.3355 35.5754 20.3094 35.5494 20.2849C35.5256 20.2618 35.5013 20.2394 35.4771 20.2166C35.4752 20.2146 35.4743 20.2116 35.4723 20.2095C35.4484 20.1865 35.4241 20.164 35.4 20.1412C35.398 20.1392 35.3971 20.1362 35.3951 20.1341C35.372 20.1119 35.3485 20.0902 35.3252 20.0682C35.3224 20.0654 35.3209 20.0615 35.318 20.0587C35.3107 20.0516 35.3037 20.0446 35.2963 20.0375C35.255 19.9968 35.2133 19.9572 35.1711 19.9174C35.1698 19.9162 35.1698 19.9139 35.1687 19.9126C35.1678 19.9119 35.167 19.911 35.1663 19.9103C35.1406 19.8855 35.1152 19.8594 35.0892 19.8349C35.0635 19.8101 35.0381 19.784 35.0121 19.7595C34.9883 19.7364 34.9639 19.7139 34.9398 19.6912C34.9378 19.6891 34.9369 19.6861 34.9349 19.6841C34.9119 19.6618 34.8883 19.6401 34.8651 19.6181C34.8623 19.6153 34.8606 19.6115 34.8578 19.6087C34.8317 19.5835 34.8071 19.5582 34.7807 19.5333C34.7555 19.5089 34.7316 19.4844 34.706 19.4602C34.6803 19.4354 34.6549 19.4093 34.6289 19.3848C34.6032 19.36 34.5778 19.3339 34.5518 19.3094C34.528 19.2864 34.5036 19.2639 34.4795 19.2411C34.4776 19.2391 34.4766 19.2361 34.4746 19.234C34.4516 19.2118 34.4281 19.1901 34.4048 19.1681C34.4021 19.1653 34.4003 19.1614 34.3975 19.1586C34.3745 19.1364 34.351 19.1147 34.3277 19.0927C34.3249 19.0899 34.3232 19.086 34.3204 19.0832C34.3131 19.0762 34.3061 19.0691 34.2988 19.0621C34.2577 19.0216 34.2154 18.9815 34.1735 18.9419C34.1723 18.9407 34.1723 18.9384 34.1711 18.9371C34.1703 18.9364 34.1695 18.9355 34.1687 18.9348C34.143 18.91 34.1176 18.8839 34.0916 18.8594C34.0678 18.8363 34.0434 18.8138 34.0193 18.7911C34.0174 18.789 34.0164 18.786 34.0144 18.784C33.9914 18.7618 33.9679 18.74 33.9446 18.718C33.9419 18.7152 33.9401 18.7114 33.9373 18.7086C33.9143 18.6864 33.8908 18.6646 33.8675 18.6426C33.8647 18.6398 33.863 18.636 33.8602 18.6332C33.8529 18.6261 33.8459 18.619 33.8386 18.612C33.7975 18.5715 33.7552 18.5315 33.7133 18.4918C33.7121 18.4906 33.7121 18.4884 33.7109 18.4871C33.7101 18.4863 33.7093 18.4855 33.7085 18.4847C33.6828 18.4599 33.6574 18.4338 33.6314 18.4093C33.6076 18.3863 33.5832 18.3638 33.5591 18.341C33.5572 18.339 33.5563 18.336 33.5542 18.3339C33.5304 18.3109 33.5061 18.2884 33.4819 18.2656C33.4799 18.2636 33.4791 18.2606 33.4771 18.2586C33.454 18.2363 33.4305 18.2146 33.4072 18.1926C33.4044 18.1898 33.4028 18.1859 33.4 18.1832C33.3926 18.1761 33.3856 18.169 33.3783 18.162C33.337 18.1213 33.2953 18.0817 33.253 18.0418C33.2518 18.0406 33.2518 18.0383 33.2506 18.037C33.2498 18.0363 33.249 18.0355 33.2482 18.0347C33.2226 18.0099 33.1971 17.9838 33.1712 17.9593C33.1455 17.9345 33.12 17.9084 33.0941 17.8839C33.0702 17.8608 33.0459 17.8384 33.0217 17.8156C33.0198 17.8136 33.0189 17.8105 33.0169 17.8085C32.9938 17.7863 32.9703 17.7646 32.947 17.7425C32.9443 17.7397 32.9426 17.7359 32.9398 17.7331C32.9167 17.7109 32.8932 17.6892 32.8699 17.6671C32.8672 17.6643 32.8655 17.6605 32.8627 17.6577C32.8375 17.6333 32.8136 17.6088 32.788 17.5847C32.7623 17.5598 32.7369 17.5338 32.7109 17.5093C32.6852 17.4845 32.6598 17.4584 32.6338 17.4339C32.61 17.4108 32.5856 17.3883 32.5615 17.3655C32.5595 17.3635 32.5586 17.3605 32.5566 17.3585C32.5336 17.3362 32.51 17.3145 32.4868 17.2925C32.4841 17.2897 32.4823 17.2859 32.4795 17.2831C32.4565 17.2608 32.4329 17.2391 32.4097 17.2171C32.4069 17.2143 32.4052 17.2105 32.4024 17.2077C32.3951 17.2006 32.3881 17.1935 32.3807 17.1865C32.3397 17.146 32.2974 17.106 32.2555 17.0663C32.2542 17.0651 32.2542 17.0628 32.2531 17.0615C32.2522 17.0608 32.2515 17.06 32.2507 17.0592C32.225 17.0344 32.1996 17.0083 32.1736 16.9838C32.1498 16.9607 32.1254 16.9383 32.1013 16.9155C32.0993 16.9135 32.0984 16.9105 32.0964 16.9084C32.0726 16.8853 32.0482 16.8629 32.0241 16.8401C32.0221 16.8381 32.0212 16.8351 32.0192 16.833C31.9962 16.8108 31.9727 16.7891 31.9494 16.767C31.9465 16.7643 31.945 16.7604 31.9421 16.7576C31.9348 16.7505 31.9278 16.7434 31.9205 16.7364C31.8792 16.6957 31.8374 16.6561 31.7952 16.6163C31.794 16.615 31.794 16.6128 31.7928 16.6115C31.792 16.6108 31.7912 16.6099 31.7904 16.6092C31.7647 16.5844 31.7393 16.5583 31.7133 16.5338C31.6895 16.5107 31.6651 16.4882 31.641 16.4655C31.6391 16.4634 31.6381 16.4604 31.6361 16.4584C31.6123 16.4353 31.588 16.4128 31.5638 16.3901C31.5619 16.388 31.561 16.385 31.559 16.383C31.5359 16.3607 31.5124 16.339 31.4891 16.317C31.4863 16.3142 31.4846 16.3104 31.4819 16.3076C31.4558 16.2824 31.4311 16.2571 31.4048 16.2322C31.3796 16.2078 31.3557 16.1833 31.3301 16.1591C31.3044 16.1343 31.279 16.1082 31.253 16.0837C31.2273 16.0589 31.2019 16.0328 31.1759 16.0083C31.1521 15.9853 31.1277 15.9628 31.1036 15.94C31.1016 15.938 31.1007 15.935 31.0987 15.9329C31.0756 15.9107 31.0521 15.889 31.0289 15.867C31.0261 15.8642 31.0244 15.8603 31.0216 15.8575C30.9985 15.8353 30.975 15.8136 30.9518 15.7916C30.949 15.7888 30.9473 15.7849 30.9445 15.7821C30.9193 15.7577 30.8954 15.7332 30.8698 15.7091C30.8441 15.6843 30.8187 15.6582 30.7927 15.6337C30.767 15.6089 30.7416 15.5828 30.7156 15.5583C30.6918 15.5352 30.6674 15.5127 30.6433 15.49C30.6414 15.4879 30.6404 15.4849 30.6384 15.4829C30.6154 15.4606 30.5919 15.4389 30.5686 15.4169C30.5659 15.4141 30.5641 15.4103 30.5613 15.4075C30.5383 15.3852 30.5148 15.3635 30.4915 15.3415C30.4887 15.3387 30.487 15.3349 30.4842 15.3321C30.4769 15.325 30.4699 15.3179 30.4626 15.3109C30.4215 15.2704 30.3792 15.2304 30.3373 15.1907C30.3361 15.1895 30.3361 15.1873 30.3349 15.186C30.334 15.1852 30.3333 15.1844 30.3325 15.1836C30.3068 15.1588 30.2814 15.1327 30.2554 15.1082C30.2316 15.0852 30.2072 15.0627 30.1831 15.0399C30.1812 15.0379 30.1802 15.0349 30.1782 15.0328C30.1544 15.0098 30.13 14.9873 30.1059 14.9645C30.1039 14.9625 30.1031 14.9595 30.1011 14.9574C30.078 14.9352 30.0545 14.9135 30.0312 14.8915C30.0284 14.8887 30.0268 14.8848 30.024 14.8821C30.0166 14.875 30.0096 14.8679 30.0023 14.8609C29.961 14.8201 29.9193 14.7806 29.877 14.7407C29.8758 14.7395 29.8758 14.7372 29.8746 14.7359C29.8738 14.7352 29.873 14.7343 29.8722 14.7336C29.8466 14.7088 29.8211 14.6827 29.7951 14.6582C29.7695 14.6334 29.744 14.6073 29.718 14.5828C29.6942 14.5597 29.6699 14.5373 29.6457 14.5145C29.6438 14.5125 29.6429 14.5094 29.6409 14.5074C29.6178 14.4852 29.5943 14.4634 29.571 14.4414C29.5682 14.4386 29.5665 14.4348 29.5638 14.432C29.5407 14.4098 29.5172 14.388 29.4939 14.366C29.4911 14.3632 29.4894 14.3594 29.4867 14.3566C29.4615 14.3322 29.4376 14.3077 29.412 14.2835C29.3863 14.2587 29.3608 14.2327 29.3349 14.2082C29.3092 14.1833 29.2838 14.1573 29.2578 14.1328C29.2339 14.1097 29.2096 14.0872 29.1855 14.0644C29.1835 14.0624 29.1826 14.0594 29.1806 14.0574C29.1575 14.0351 29.134 14.0134 29.1107 13.9914C29.108 13.9886 29.1063 13.9848 29.1035 13.982C29.0804 13.9597 29.0569 13.938 29.0336 13.916C29.0309 13.9132 29.0292 13.9094 29.0264 13.9066C29.0191 13.8995 29.0121 13.8924 29.0047 13.8854C28.9636 13.8449 28.9214 13.8049 28.8795 13.7652C28.8782 13.764 28.8782 13.7617 28.8771 13.7604C28.8762 13.7597 28.8754 13.7589 28.8747 13.7581C28.849 13.7333 28.8236 13.7072 28.7976 13.6827C28.7738 13.6596 28.7494 13.6372 28.7253 13.6144C28.7233 13.6124 28.7224 13.6094 28.7204 13.6073C28.6966 13.5842 28.6722 13.5618 28.6481 13.539C28.6461 13.537 28.6452 13.534 28.6432 13.5319C28.6202 13.5097 28.5967 13.488 28.5734 13.4659C28.5705 13.4632 28.569 13.4593 28.5661 13.4565C28.5588 13.4494 28.5518 13.4423 28.5445 13.4353C28.5031 13.3946 28.4614 13.355 28.4192 13.3152C28.4179 13.3139 28.4179 13.3117 28.4168 13.3104C28.4159 13.3096 28.4152 13.3088 28.4144 13.3081C28.3887 13.2833 28.3633 13.2572 28.3373 13.2327C28.3135 13.2096 28.2891 13.1871 28.265 13.1644C28.2631 13.1623 28.2621 13.1593 28.2601 13.1573C28.2363 13.1342 28.2119 13.1117 28.1878 13.089C28.1859 13.0869 28.185 13.0839 28.183 13.0819C28.1599 13.0596 28.1364 13.0379 28.1131 13.0159C28.1103 13.0131 28.1086 13.0093 28.1059 13.0065C28.0798 12.9813 28.0551 12.956 28.0288 12.9311C28.0035 12.9067 27.9797 12.8821 27.9541 12.858C27.9284 12.8332 27.9029 12.8071 27.877 12.7826C27.8513 12.7578 27.8258 12.7317 27.7999 12.7072C27.776 12.6842 27.7517 12.6617 27.7275 12.6389C27.7256 12.6369 27.7247 12.6339 27.7227 12.6318C27.6996 12.6096 27.6761 12.5879 27.6528 12.5659C27.6501 12.5631 27.6484 12.5592 27.6456 12.5564C27.6225 12.5342 27.599 12.5125 27.5757 12.4905C27.573 12.4877 27.5713 12.4838 27.5685 12.481C27.5433 12.4566 27.5194 12.4321 27.4938 12.408C27.4681 12.3832 27.4427 12.3571 27.4167 12.3326C27.391 12.3078 27.3656 12.2817 27.3396 12.2572C27.3158 12.2341 27.2914 12.2116 27.2673 12.1889C27.2653 12.1868 27.2644 12.1838 27.2624 12.1818C27.2394 12.1595 27.2158 12.1378 27.1926 12.1158C27.1899 12.113 27.1881 12.1092 27.1853 12.1064C27.1623 12.0841 27.1388 12.0624 27.1155 12.0404C27.1127 12.0376 27.111 12.0338 27.1082 12.031C27.1009 12.0239 27.0939 12.0168 27.0866 12.0098C27.0455 11.9693 27.0032 11.9293 26.9613 11.8896C26.96 11.8884 26.96 11.8862 26.9589 11.8849C26.958 11.8841 26.9573 11.8833 26.9565 11.8825C26.9308 11.8577 26.9054 11.8316 26.8794 11.8071C26.8729 11.8009 26.8666 11.7945 26.8601 11.7883C25.1924 10.143 22.7926 9.19162 19.6515 9.00328C19.6339 9.00162 19.6162 9.00086 19.5985 9.00094M12.6597 9.15648C12.3588 9.16621 12.0399 9.30026 11.6237 9.5735C10.6815 10.4176 9.51547 11.038 9.11804 12.1468C9.11619 12.1519 9 12.4767 9 12.4767C9.09683 13.4177 9.50661 14.5991 10.1517 15.9004C11.2276 18.0701 12.7792 20.7402 14.9533 22.8581C14.988 22.8924 15.0242 22.9254 15.0593 22.9594C15.0597 22.9598 15.0589 22.9614 15.0593 22.9617C15.0848 22.9862 15.1107 23.0105 15.1364 23.0348L15.1388 23.0371C15.1392 23.0375 15.1408 23.0368 15.1412 23.0371C15.142 23.0378 15.1429 23.0388 15.1436 23.0395C15.1514 23.0475 15.1598 23.055 15.1677 23.0631C15.1697 23.0651 15.1706 23.0681 15.1726 23.0702C15.2016 23.099 15.23 23.1287 15.2593 23.1573C15.2713 23.1692 15.2834 23.1808 15.2955 23.1927C15.3095 23.2063 15.3248 23.2191 15.3389 23.2327C15.3494 23.2427 15.3596 23.2534 15.3702 23.2633L15.375 23.2681C15.3932 23.2855 15.4122 23.3026 15.4305 23.3199C15.4372 23.3267 15.4429 23.3344 15.4497 23.3411L15.4546 23.3459C15.4562 23.3475 15.4577 23.3491 15.4594 23.3506C15.4961 23.3871 15.5332 23.4229 15.5703 23.4591C15.6007 23.4891 15.6312 23.5188 15.6619 23.5486C15.6676 23.5541 15.6731 23.5597 15.6788 23.5651C15.6804 23.5667 15.6819 23.5683 15.6836 23.5699C15.686 23.5722 15.6885 23.5746 15.6909 23.577C15.7075 23.5929 15.7248 23.6083 15.7415 23.6241C15.7514 23.634 15.7604 23.6449 15.7704 23.6547C15.8117 23.6959 15.8538 23.7364 15.8957 23.7772C15.9063 23.7873 15.9163 23.7978 15.927 23.8078C15.9428 23.823 15.9593 23.8375 15.9751 23.8526C15.9859 23.8633 15.9957 23.8749 16.0064 23.8856C16.0215 23.9001 16.0371 23.9138 16.0522 23.9281C16.0593 23.9353 16.0668 23.9422 16.0739 23.9493C16.0747 23.9501 16.0755 23.9509 16.0763 23.9516C16.0799 23.9552 16.0823 23.9598 16.0859 23.9634C16.0876 23.965 16.0891 23.9666 16.0908 23.9681C16.1361 24.0133 16.1822 24.0579 16.2281 24.1024C16.2329 24.1072 16.2377 24.1118 16.2426 24.1166C16.2568 24.1303 16.2717 24.143 16.286 24.1566C16.2983 24.1688 16.3097 24.1821 16.3222 24.1943C16.3356 24.2071 16.3496 24.2192 16.3631 24.232C16.3778 24.2467 16.3916 24.2623 16.4065 24.2768C16.4224 24.292 16.4387 24.3065 16.4547 24.3216C16.4575 24.3244 16.4616 24.3259 16.4643 24.3287C16.4651 24.3295 16.4659 24.3303 16.4667 24.331C16.4688 24.333 16.4695 24.3361 16.4716 24.3381C16.4744 24.3409 16.476 24.3447 16.4788 24.3475C16.4922 24.3603 16.5063 24.3725 16.5198 24.3852C16.5221 24.3876 16.5246 24.3899 16.527 24.3923C16.5378 24.4029 16.5475 24.4146 16.5583 24.4253C16.571 24.4374 16.5841 24.4486 16.5969 24.4607C16.6032 24.467 16.6098 24.4732 16.6161 24.4796C16.6237 24.487 16.6302 24.4957 16.6378 24.5031C16.6496 24.5144 16.6621 24.5249 16.674 24.5362C16.6886 24.5507 16.7026 24.5665 16.7174 24.581C16.7291 24.5921 16.7417 24.6028 16.7535 24.614C16.7676 24.6279 16.7803 24.6425 16.7945 24.6564C16.8063 24.6677 16.8187 24.6782 16.8306 24.6895C16.8454 24.7042 16.8591 24.7196 16.874 24.7342C16.8851 24.7448 16.8966 24.7544 16.9078 24.7649C16.9233 24.7802 16.938 24.7967 16.9536 24.812C16.9638 24.8217 16.9747 24.8305 16.9849 24.8403C16.9919 24.8475 16.9995 24.8543 17.0066 24.8614C17.015 24.8697 17.0222 24.8791 17.0307 24.8874C17.0416 24.8978 17.0534 24.9076 17.0645 24.918C17.0708 24.9243 17.0774 24.9305 17.0837 24.9368C17.0929 24.9459 17.101 24.9561 17.1102 24.9651C17.1204 24.9748 17.1313 24.9837 17.1415 24.9934C17.1579 25.0096 17.1733 25.0267 17.1897 25.0428C17.1991 25.0517 17.2093 25.0599 17.2186 25.0688C17.2358 25.0858 17.252 25.1037 17.2692 25.1207C17.2785 25.1295 17.2888 25.1378 17.2981 25.1466C17.3146 25.1629 17.3297 25.1798 17.3463 25.196C17.3556 25.2049 17.3658 25.2131 17.3752 25.222C17.3956 25.2422 17.415 25.2632 17.4354 25.2833L17.4378 25.2856C17.4424 25.2899 17.4478 25.2931 17.4523 25.2974C17.4701 25.3151 17.4874 25.334 17.5054 25.3516C17.5395 25.3846 17.5744 25.4179 17.609 25.4506C17.6271 25.4686 17.6438 25.4869 17.662 25.5048C17.6698 25.5122 17.6784 25.5187 17.6862 25.526C17.7074 25.547 17.7275 25.5687 17.7488 25.5896L17.7512 25.592C17.7549 25.5954 17.7596 25.5979 17.7633 25.6014C17.7828 25.6208 17.8015 25.641 17.8211 25.6603C17.8537 25.6919 17.8868 25.7232 17.9198 25.7545C17.9394 25.7739 17.958 25.7941 17.9777 25.8134C17.9838 25.8192 17.9908 25.824 17.9969 25.8299C18.0171 25.85 18.0369 25.8712 18.0572 25.8912C18.0888 25.9218 18.1215 25.9527 18.1535 25.9831C18.1743 26.0038 18.1953 26.0238 18.2162 26.0444C18.2316 26.059 18.2465 26.0746 18.262 26.0892C18.2676 26.0946 18.2732 26.1003 18.2789 26.1057C18.3016 26.1281 18.3234 26.1518 18.3463 26.174C18.3551 26.1827 18.3641 26.1913 18.3729 26.2C18.4031 26.2291 18.4339 26.2582 18.4645 26.2871C18.4867 26.3093 18.5096 26.3311 18.5319 26.3531C18.536 26.3569 18.5399 26.361 18.5439 26.3649C18.5917 26.4125 18.6399 26.4592 18.6885 26.5062C18.7147 26.5325 18.7415 26.5579 18.768 26.584C18.7802 26.5955 18.792 26.6078 18.8042 26.6193C18.8045 26.6197 18.8062 26.6189 18.8065 26.6193C18.8113 26.6238 18.8163 26.6289 18.821 26.6335C18.8301 26.6425 18.8384 26.6528 18.8476 26.6618C18.9007 26.7148 18.9549 26.7674 19.009 26.8196C19.0337 26.8444 19.0587 26.8682 19.0837 26.8927C19.0939 26.9024 19.1048 26.9114 19.115 26.921C19.1194 26.9254 19.1227 26.9307 19.127 26.9352C19.139 26.947 19.1512 26.9588 19.1632 26.9705C19.1887 26.9961 19.2145 27.0206 19.2403 27.0459C19.2407 27.0463 19.2423 27.0455 19.2427 27.0459C19.2597 27.0627 19.2761 27.081 19.2933 27.0978C19.3112 27.1149 19.3282 27.1325 19.3463 27.1497C19.3636 27.1662 19.3819 27.1827 19.3993 27.1991C19.3997 27.1995 19.399 27.2011 19.3993 27.2015C19.4248 27.226 19.4508 27.2502 19.4764 27.2745C19.4777 27.2757 19.4777 27.2781 19.4788 27.2793C19.5037 27.3032 19.5284 27.3262 19.5535 27.35C19.5548 27.3512 19.5547 27.3535 19.5559 27.3547C19.5814 27.3793 19.6073 27.4034 19.633 27.4278C19.6343 27.429 19.6343 27.4313 19.6354 27.4325C19.6599 27.4562 19.6854 27.4798 19.7101 27.5033C19.7121 27.5052 19.7129 27.5084 19.715 27.5104C19.7389 27.5334 19.7631 27.5558 19.7873 27.5787L19.7945 27.5858C19.8193 27.6097 19.8418 27.6351 19.8669 27.6588L19.8717 27.6636C19.882 27.6733 19.8928 27.6822 19.903 27.6918C19.9167 27.705 19.9302 27.7188 19.944 27.7319C19.9467 27.7347 19.9484 27.7385 19.9512 27.7413C19.9742 27.7635 19.9978 27.7853 20.0211 27.8073C20.0247 27.8108 20.0271 27.8155 20.0307 27.819C20.0531 27.8406 20.0756 27.8613 20.0982 27.8827L20.1102 27.8944C20.1328 27.9162 20.1548 27.9388 20.1776 27.9604C20.1961 27.9786 20.2145 27.9965 20.2331 28.0146C20.2694 28.0506 20.3071 28.0851 20.3439 28.1206C20.3447 28.1214 20.3456 28.1222 20.3463 28.123C20.3468 28.1234 20.3459 28.1248 20.3463 28.1253C20.3504 28.1292 20.3543 28.1332 20.3584 28.1371C20.395 28.1737 20.432 28.2093 20.4692 28.2455C20.4955 28.2715 20.5222 28.2974 20.5487 28.3232C20.5846 28.3587 20.6208 28.3942 20.6571 28.4292L20.662 28.434C20.6664 28.4383 20.672 28.4415 20.6765 28.4457C20.7126 28.4819 20.7482 28.5184 20.7849 28.5542C20.8208 28.5898 20.8568 28.625 20.8933 28.6602L20.8981 28.6649C20.9111 28.6774 20.9236 28.6902 20.9367 28.7026C20.9526 28.7184 20.9688 28.734 20.9848 28.7497C21.0229 28.7878 21.0618 28.8251 21.1005 28.8628C21.1356 28.8977 21.1708 28.9321 21.2065 28.9665L21.2137 28.9736C21.2268 28.9861 21.2392 28.9988 21.2523 29.0113C21.2706 29.0295 21.2893 29.0475 21.3077 29.0655C21.3434 29.1012 21.3798 29.1363 21.4161 29.1715C21.4512 29.2063 21.4865 29.2409 21.5221 29.2752C21.5245 29.2775 21.527 29.2799 21.5294 29.2823C21.5423 29.2947 21.5549 29.3076 21.5679 29.32C21.5839 29.3358 21.6001 29.3513 21.6161 29.3671C21.6626 29.4137 21.7108 29.458 21.7583 29.5038C21.7611 29.5066 21.7627 29.5104 21.7655 29.5132C21.7786 29.5257 21.791 29.5385 21.8041 29.5509C21.83 29.5767 21.8574 29.6008 21.8836 29.6263C21.903 29.6457 21.9218 29.666 21.9414 29.6852C21.9842 29.728 22.0278 29.7704 22.0715 29.8125L22.0812 29.8219C22.0937 29.8339 22.1071 29.8452 22.1197 29.8572C22.146 29.8834 22.1726 29.9091 22.1992 29.935C22.226 29.9616 22.2516 29.9888 22.2787 30.0151C22.3065 30.0429 22.3347 30.0702 22.363 30.0976C22.3893 30.1237 22.4159 30.1496 22.4425 30.1753C22.4688 30.2014 22.4954 30.2273 22.522 30.2531C22.5478 30.2787 22.5754 30.3031 22.6015 30.3285C22.6255 30.3523 22.6495 30.3756 22.6738 30.3992C22.7021 30.4274 22.7294 30.4562 22.7582 30.484C22.7945 30.5201 22.832 30.5546 22.869 30.59L22.8714 30.5924C22.8763 30.597 22.881 30.6019 22.8859 30.6065C22.9218 30.6426 22.9577 30.6794 22.9943 30.715C23.0185 30.7391 23.0444 30.7619 23.069 30.7857C23.1066 30.8231 23.144 30.8597 23.1823 30.8964L23.1871 30.9012C23.1925 30.9063 23.1986 30.9102 23.204 30.9154C23.2378 30.9493 23.2708 30.9834 23.3052 31.0167C23.3426 31.0539 23.3803 31.0909 23.4185 31.1275L23.4234 31.1322C23.4364 31.1446 23.4488 31.1575 23.4619 31.1699C23.481 31.189 23.5005 31.2076 23.5197 31.2264C23.555 31.2619 23.5897 31.2977 23.6257 31.3325C23.6597 31.3662 23.6947 31.3982 23.7294 31.4315L23.739 31.4409C23.7517 31.453 23.7647 31.4642 23.7775 31.4762C23.797 31.4956 23.8157 31.516 23.8354 31.5351C23.8781 31.5781 23.9216 31.6203 23.9655 31.6624L23.9751 31.6718C23.9877 31.6838 24.001 31.6953 24.0137 31.7072C24.0307 31.7242 24.0471 31.7422 24.0643 31.7591C24.1018 31.797 24.139 31.8352 24.1775 31.8721C24.2114 31.9058 24.2465 31.938 24.2811 31.9711L24.2908 31.9806C24.3006 31.9899 24.3098 31.9996 24.3197 32.0088C24.3427 32.0319 24.3663 32.0545 24.3895 32.0772C24.4306 32.1185 24.4726 32.1594 24.5148 32.1997L24.5268 32.2114C24.5366 32.2207 24.546 32.2305 24.5558 32.2397C24.5844 32.2684 24.6133 32.2963 24.6425 32.3245C24.6604 32.3424 24.6798 32.3587 24.6979 32.3764C24.7417 32.4207 24.7853 32.4652 24.8305 32.5083L24.8425 32.5201C24.8544 32.5313 24.8667 32.542 24.8786 32.5531C24.9025 32.577 24.9267 32.6003 24.951 32.6239C24.979 32.6521 25.0067 32.681 25.0353 32.7087C25.0588 32.7322 25.0836 32.7538 25.1076 32.777C25.1377 32.8073 25.1684 32.8369 25.1992 32.8666C25.2283 32.8957 25.2563 32.9252 25.2859 32.9537C25.309 32.9767 25.3324 32.9994 25.3558 33.022C25.3843 33.0505 25.4134 33.0789 25.4425 33.1068C25.4659 33.1301 25.491 33.1522 25.5149 33.1752C25.5519 33.2123 25.5899 33.2498 25.6281 33.2859L25.633 33.2907C25.6394 33.2968 25.6457 33.3034 25.6522 33.3095C25.6846 33.3424 25.7177 33.3741 25.751 33.4061C25.7799 33.4351 25.8081 33.4649 25.8377 33.4933C25.8718 33.5273 25.9086 33.559 25.9437 33.5923C25.9453 33.5938 25.947 33.5953 25.9486 33.597C25.9491 33.5975 25.9481 33.5989 25.9486 33.5993C25.9511 33.6017 25.9534 33.6041 25.9558 33.6064C25.9946 33.646 26.0337 33.6858 26.0739 33.7243C26.107 33.7574 26.141 33.7887 26.1751 33.8209C26.1783 33.824 26.1815 33.8271 26.1847 33.8303C26.2009 33.8454 26.2166 33.8601 26.2329 33.8751C26.2437 33.8858 26.2534 33.8974 26.2642 33.9081C26.2713 33.9146 26.2789 33.9205 26.2859 33.9269C26.2921 33.9335 26.299 33.9392 26.3052 33.9458C26.3234 33.9641 26.3424 33.9817 26.3606 34C29.0359 32.7743 31.3288 30.8831 33.0149 28.5435C33.0108 28.5397 33.007 28.5356 33.0028 28.5318C32.9789 28.5073 32.9556 28.4841 32.9305 28.461C32.9068 28.4367 32.8807 28.4132 32.8558 28.3903C32.832 28.366 32.8085 28.3425 32.7835 28.3196C32.7599 28.2955 32.7359 28.2716 32.7112 28.2489C32.6871 28.2242 32.6618 28.2012 32.6365 28.1781C32.6127 28.1538 32.5892 28.1302 32.5642 28.1074C32.5403 28.0829 32.5171 28.0595 32.4918 28.0367C32.4749 28.0194 32.4565 28.0038 32.4388 27.9872C32.409 27.9555 32.3769 27.9243 32.3448 27.8953C32.3209 27.8708 32.2978 27.8473 32.2725 27.8246C32.2493 27.8008 32.2248 27.7783 32.2002 27.7563C32.1757 27.7311 32.1515 27.7065 32.1255 27.6832C32.1036 27.6608 32.0812 27.6404 32.058 27.6196C32.035 27.5956 32.0127 27.5733 31.9882 27.5513C31.965 27.5271 31.9406 27.5052 31.9158 27.483C31.8888 27.4546 31.8632 27.4261 31.8339 27.4005C31.8146 27.3808 31.794 27.3622 31.7737 27.344C31.746 27.3147 31.717 27.2876 31.6869 27.2615C31.6634 27.2374 31.6398 27.2125 31.6146 27.1907C31.6041 27.1799 31.5919 27.1705 31.5809 27.1601C31.5742 27.1533 31.5683 27.1457 31.5616 27.139C31.559 27.1367 31.5569 27.1341 31.5543 27.1319C31.5423 27.1191 31.5308 27.1062 31.5182 27.0942C31.4968 27.0722 31.4749 27.0498 31.4531 27.0282C31.446 27.021 31.4385 27.0142 31.4314 27.007C31.4097 26.9843 31.3884 26.9611 31.3664 26.9387C31.3321 26.9029 31.2978 26.8677 31.2628 26.8327C31.2584 26.8282 31.2551 26.823 31.2507 26.8185C31.2127 26.7787 31.1739 26.7395 31.1351 26.7007C31.1319 26.6974 31.1286 26.6945 31.1255 26.6912C31.0994 26.6639 31.0749 26.6357 31.0484 26.6088C31.0141 26.5731 30.9797 26.5376 30.9447 26.5028C30.9238 26.4813 30.9033 26.4603 30.8821 26.4391C30.8742 26.4311 30.8658 26.4235 30.8579 26.4155C30.8233 26.3795 30.7896 26.3424 30.7543 26.3071C30.7457 26.2982 30.7365 26.29 30.7278 26.2812C30.6939 26.2459 30.6612 26.2097 30.6266 26.1752C30.6056 26.1537 30.5851 26.1327 30.5639 26.1115C30.5623 26.1099 30.5606 26.1084 30.559 26.1068C30.5183 26.0641 30.4778 26.0211 30.4361 25.9795C30.4341 25.9775 30.4333 25.9744 30.4313 25.9724C30.4061 25.946 30.3797 25.9206 30.3542 25.8947C30.3184 25.8574 30.2822 25.8204 30.2458 25.7839C30.2442 25.7823 30.2425 25.7808 30.2409 25.7792C30.2003 25.7366 30.1596 25.6934 30.118 25.6519C30.1169 25.6507 30.1168 25.6484 30.1156 25.6471C30.092 25.6223 30.0673 25.5985 30.0433 25.5741C30.0052 25.5343 29.9665 25.4952 29.9277 25.4562C29.9269 25.4554 29.926 25.4547 29.9253 25.4539C29.8997 25.4271 29.8742 25.4002 29.8482 25.3738C29.8112 25.3352 29.7751 25.296 29.7373 25.2583C29.7334 25.2543 29.7292 25.2506 29.7253 25.2466C29.6867 25.2063 29.649 25.1658 29.6096 25.1264C29.5887 25.105 29.5681 25.0839 29.547 25.0627C29.5438 25.0595 29.5405 25.0565 29.5373 25.0533C29.5307 25.0464 29.5247 25.039 29.5181 25.0321C29.4537 24.9539 29.3886 24.8763 29.3229 24.7942C29.3077 24.7828 29.2945 24.7722 29.2795 24.7612C29.2741 24.7544 29.268 24.7491 29.2626 24.7423C29.26 24.7321 29.2533 24.7281 29.2457 24.7187C29.2281 24.7054 29.2124 24.6938 29.1952 24.681C29.1891 24.6678 29.1807 24.6583 29.1686 24.6433C29.1553 24.6333 29.1433 24.6248 29.1301 24.615C29.1209 24.5998 29.1069 24.5871 29.0915 24.5679C29.0787 24.5583 29.0681 24.5491 29.0554 24.5396C29.0446 24.5258 29.0319 24.5136 29.0168 24.4949C29.0054 24.4863 28.9943 24.4796 28.9831 24.4713C28.9703 24.4555 28.9568 24.4407 28.9397 24.4194C28.9273 24.4101 28.9157 24.4025 28.9035 24.3934C28.8904 24.3783 28.8787 24.3641 28.8626 24.344C28.8507 24.3351 28.8405 24.3267 28.8288 24.3181C28.815 24.3023 28.8019 24.2892 28.7854 24.2686C28.7744 24.2604 28.7649 24.2531 28.7541 24.245C28.7395 24.2285 28.7254 24.2145 28.7083 24.1931C28.6973 24.1849 28.6878 24.1776 28.677 24.1695C28.6621 24.1526 28.6483 24.139 28.6312 24.1176C28.6196 24.109 28.6088 24.1026 28.5974 24.094C28.583 24.0776 28.5727 24.0649 28.5565 24.0446C28.5448 24.0358 28.5343 24.0272 28.5227 24.0187C28.5078 24.0017 28.4959 23.9898 28.4793 23.9692C28.4684 23.961 28.4587 23.9537 28.448 23.9456C28.4324 23.9278 28.4195 23.9153 28.4022 23.8937C28.3904 23.8849 28.3801 23.8765 28.3685 23.8678C28.3536 23.8507 28.3413 23.8386 28.325 23.8183C28.3132 23.8094 28.303 23.8011 28.2913 23.7924C28.2763 23.7751 28.2641 23.7632 28.2479 23.7429C28.2361 23.734 28.2258 23.7257 28.2141 23.717C28.2001 23.7007 28.1857 23.6862 28.1707 23.6675C28.1597 23.6592 28.1503 23.6521 28.1394 23.6439C28.1251 23.6273 28.1112 23.6134 28.096 23.5945C28.0846 23.5859 28.0735 23.5792 28.0622 23.5709C28.0474 23.5536 28.0346 23.5387 28.0188 23.519C28.0066 23.5098 27.9948 23.502 27.9827 23.4931C27.9685 23.4765 27.9566 23.4622 27.9417 23.4436C27.9302 23.435 27.9193 23.4284 27.908 23.42C27.8932 23.4027 27.8801 23.3876 27.8645 23.3681C27.8528 23.3592 27.8424 23.3509 27.8308 23.3422C27.8164 23.3253 27.8025 23.3115 27.7874 23.2927C27.7749 23.2834 27.7635 23.2759 27.7512 23.2668C27.7372 23.2502 27.7249 23.2357 27.7103 23.2173C27.6993 23.2091 27.6898 23.2018 27.679 23.1937C27.6639 23.1759 27.649 23.1616 27.6332 23.1419C27.6215 23.1331 27.6109 23.1268 27.5994 23.1183C27.5851 23.1013 27.5733 23.0874 27.5585 23.0688C27.5462 23.0596 27.5344 23.0518 27.5223 23.0429C27.508 23.0258 27.4963 23.012 27.4814 22.9934C27.4699 22.9848 27.4589 22.9782 27.4476 22.9698C27.4327 22.9521 27.4198 22.9374 27.4042 22.9179C27.3924 22.909 27.3821 22.9007 27.3704 22.892C27.3559 22.8747 27.3421 22.8613 27.327 22.8425C27.3151 22.8336 27.305 22.8253 27.2933 22.8166C27.2786 22.7991 27.265 22.7861 27.2498 22.7671C27.2384 22.7585 27.2274 22.752 27.2161 22.7435C27.2012 22.7257 27.1882 22.711 27.1727 22.6917C27.1598 22.682 27.1492 22.6728 27.1365 22.6634C27.1237 22.648 27.1111 22.6351 27.098 22.6186C27.0857 22.6094 27.0739 22.6016 27.0618 22.5927C27.0482 22.5762 27.0349 22.5608 27.0209 22.5432C27.0085 22.5339 26.9968 22.5263 26.9847 22.5173C26.971 22.5007 26.9579 22.4855 26.9438 22.4678C26.9304 22.4577 26.9184 22.4493 26.9052 22.4395C26.8923 22.4239 26.88 22.4091 26.8667 22.3924C26.8543 22.3831 26.8427 22.3755 26.8305 22.3665C26.8169 22.35 26.8036 22.3345 26.7896 22.317C26.7762 22.307 26.7641 22.2985 26.751 22.2887C26.7382 22.2731 26.7257 22.2581 26.7125 22.2416C26.7 22.2323 26.6886 22.2248 26.6763 22.2157C26.6631 22.1996 26.6513 22.1855 26.6378 22.1686C26.6246 22.1586 26.6122 22.1499 26.5992 22.1403C26.586 22.1243 26.5742 22.1101 26.5607 22.0932C26.5483 22.0839 26.5366 22.0762 26.5245 22.0672C26.5106 22.0505 26.4978 22.0355 26.4836 22.0178C26.4703 22.0077 26.4581 21.9991 26.445 21.9895C26.4319 21.9737 26.4198 21.9591 26.4065 21.9424C26.3931 21.9323 26.381 21.9238 26.3679 21.9141C26.3549 21.8983 26.3426 21.8836 26.3294 21.867C26.317 21.8576 26.3055 21.8502 26.2932 21.841C26.2796 21.8244 26.2662 21.809 26.2523 21.7916C26.2398 21.7822 26.2284 21.7748 26.2161 21.7656C26.2029 21.7497 26.191 21.7353 26.1776 21.7185C26.1649 21.709 26.1539 21.6995 26.1414 21.6902C26.1279 21.6738 26.1143 21.6604 26.1005 21.6431C26.0883 21.6339 26.0764 21.6261 26.0643 21.6172C26.0505 21.6004 26.0374 21.5853 26.0234 21.5677C26.011 21.5584 25.9994 21.5508 25.9872 21.5418C25.9733 21.525 25.9604 21.51 25.9463 21.4923C25.934 21.4831 25.9222 21.4754 25.9101 21.4664C25.8963 21.4496 25.8832 21.4345 25.8692 21.4169C25.8568 21.4076 25.8453 21.4 25.833 21.391C25.8192 21.3741 25.8062 21.3592 25.7921 21.3415C25.7796 21.3321 25.7683 21.3247 25.7559 21.3156C25.7422 21.2989 25.729 21.2836 25.715 21.2661C25.7024 21.2567 25.6912 21.2493 25.6788 21.2402C25.6657 21.2241 25.6537 21.2098 25.6403 21.1931C25.627 21.1831 25.6148 21.1745 25.6017 21.1648C25.5885 21.1487 25.5767 21.1345 25.5632 21.1177C25.5505 21.1082 25.5394 21.0986 25.527 21.0894C25.5136 21.073 25.4997 21.0593 25.4861 21.0423C25.4737 21.0329 25.4622 21.0254 25.4499 21.0163C25.4361 20.9995 25.4231 20.9845 25.409 20.9669C25.3957 20.9569 25.3835 20.9483 25.3704 20.9386C25.3573 20.9226 25.3452 20.9082 25.3319 20.8915C25.3194 20.8821 25.3081 20.8747 25.2957 20.8656C25.2819 20.8487 25.2689 20.8337 25.2548 20.8161C25.2424 20.8067 25.2308 20.7992 25.2186 20.7902C25.2055 20.774 25.1935 20.7598 25.1801 20.743C25.1678 20.7338 25.156 20.7261 25.1439 20.7171C25.13 20.7 25.1172 20.6854 25.103 20.6676C25.0904 20.6581 25.0793 20.6486 25.0668 20.6394C25.0533 20.6228 25.0396 20.6094 25.0259 20.5922C25.0135 20.5829 25.0019 20.5753 24.9897 20.5663C24.9759 20.5494 24.9628 20.5343 24.9488 20.5168C24.9365 20.5076 24.9247 20.4999 24.9126 20.4909C24.8988 20.4739 24.8857 20.459 24.8717 20.4414C24.8584 20.4314 24.8462 20.4228 24.8332 20.4132C24.8201 20.3971 24.8079 20.3826 24.7946 20.366C24.7822 20.3567 24.7706 20.3492 24.7584 20.3401C24.7451 20.3238 24.7334 20.3099 24.7199 20.293C24.7067 20.2831 24.6942 20.2742 24.6814 20.2647C24.6682 20.2485 24.6562 20.2343 24.6428 20.2176C24.6304 20.2082 24.6188 20.2007 24.6066 20.1917C24.5927 20.1745 24.5798 20.1599 24.5657 20.1422C24.5524 20.1322 24.5401 20.1235 24.5272 20.1139C24.514 20.0977 24.502 20.0835 24.4886 20.0668C24.4761 20.0574 24.4647 20.0499 24.4525 20.0409C24.4386 20.0238 24.4255 20.009 24.4115 19.9914C24.3991 19.982 24.3875 19.9745 24.3754 19.9655C24.3615 19.9485 24.3484 19.9335 24.3344 19.916C24.321 19.9059 24.309 19.8975 24.2959 19.8877C24.2828 19.8717 24.2706 19.8572 24.2573 19.8406C24.2454 19.8316 24.2353 19.8233 24.2235 19.8147C24.21 19.798 24.1963 19.7847 24.1826 19.7675C24.1694 19.7576 24.157 19.7488 24.1441 19.7393C24.1309 19.7231 24.1189 19.7088 24.1055 19.6921C24.0932 19.6829 24.0815 19.6752 24.0694 19.6662C24.0554 19.6491 24.0425 19.6344 24.0284 19.6168C24.0151 19.6067 24.0029 19.5981 23.9899 19.5885C23.9767 19.5723 23.9647 19.558 23.9513 19.5414C23.9389 19.532 23.9273 19.5244 23.9152 19.5154C23.9013 19.4984 23.8883 19.4835 23.8742 19.466C23.8613 19.4563 23.8507 19.447 23.8381 19.4377C23.8246 19.4212 23.8107 19.4076 23.7971 19.3906C23.7856 19.3819 23.7748 19.3754 23.7634 19.367C23.7493 19.3497 23.7366 19.3352 23.7224 19.3175C23.7102 19.3082 23.6983 19.3005 23.6863 19.2916C23.6723 19.2745 23.6594 19.2597 23.6453 19.2421C23.6322 19.2322 23.6196 19.2233 23.6068 19.2138C23.5936 19.1976 23.5816 19.1834 23.5682 19.1667C23.5558 19.1574 23.5442 19.1497 23.5321 19.1408C23.5181 19.1237 23.5052 19.109 23.4911 19.0913C23.4779 19.0814 23.4655 19.0725 23.4526 19.063C23.4394 19.0468 23.4274 19.0326 23.414 19.0159C23.4015 19.0065 23.3901 18.999 23.3779 18.99C23.364 18.9729 23.351 18.958 23.3369 18.9405C23.324 18.9308 23.3135 18.9216 23.3008 18.9122C23.2879 18.8964 23.2753 18.8837 23.2622 18.8675C23.25 18.8582 23.2381 18.8504 23.2261 18.8415C23.212 18.8243 23.1993 18.8098 23.1851 18.7921C23.1723 18.7825 23.1615 18.773 23.149 18.7638C23.1354 18.7471 23.1217 18.7338 23.108 18.7167C23.0954 18.7072 23.0843 18.6975 23.0719 18.6884C23.0583 18.6716 23.0447 18.6584 23.0309 18.6413C23.0181 18.6316 23.0073 18.6223 22.9948 18.613C22.9812 18.5963 22.9675 18.583 22.9538 18.5659C22.9406 18.5558 22.9282 18.5472 22.9153 18.5376C22.9021 18.5214 22.8901 18.5071 22.8767 18.4905C22.8642 18.481 22.8529 18.4736 22.8406 18.4645C22.8273 18.4482 22.8154 18.4342 22.802 18.4174C22.789 18.4076 22.7762 18.3986 22.7635 18.3891C22.7502 18.3728 22.7383 18.3588 22.7249 18.342C22.7126 18.3327 22.7009 18.325 22.6888 18.3161C22.6747 18.2988 22.6619 18.2843 22.6478 18.2666C22.6356 18.2574 22.6236 18.2495 22.6117 18.2407C22.5977 18.2235 22.5848 18.2088 22.5707 18.1912C22.5582 18.1819 22.5468 18.1743 22.5346 18.1653C22.5206 18.1481 22.5078 18.1334 22.4936 18.1158C22.4813 18.1066 22.4696 18.0988 22.4575 18.0899C22.4435 18.0727 22.4306 18.058 22.4165 18.0404C22.4037 18.0308 22.393 18.0214 22.3804 18.0122C22.3669 17.9955 22.3531 17.9821 22.3394 17.965C22.3279 17.9564 22.317 17.9498 22.3057 17.9414C22.2916 17.9242 22.2788 17.9096 22.2647 17.892C22.2516 17.8821 22.239 17.8731 22.2262 17.8637C22.2129 17.8473 22.201 17.8332 22.1876 17.8166C22.1742 17.8065 22.1621 17.7979 22.1491 17.7883C22.1358 17.7719 22.124 17.7579 22.1105 17.7412C22.0973 17.7312 22.0849 17.7224 22.072 17.7129C22.0592 17.6971 22.0464 17.6819 22.0334 17.6658C22.02 17.6556 22.008 17.6472 21.9949 17.6375C21.9819 17.6215 21.9694 17.6067 21.9563 17.5904C21.9429 17.5804 21.9308 17.5717 21.9178 17.5621C21.9049 17.5462 21.8923 17.5312 21.8793 17.515C21.8658 17.5049 21.8538 17.4964 21.8407 17.4867C21.8284 17.4715 21.817 17.4575 21.8045 17.4419C21.7914 17.432 21.7788 17.423 21.766 17.4137C21.753 17.3977 21.7405 17.3828 21.7274 17.3665C21.7133 17.3559 21.7002 17.3459 21.6865 17.3359C21.6742 17.3208 21.6628 17.3066 21.6504 17.2911C21.6371 17.2812 21.6247 17.2723 21.6118 17.2629C21.5989 17.247 21.5863 17.232 21.5733 17.2157C21.5599 17.2057 21.5477 17.197 21.5347 17.1875C21.5218 17.1716 21.5091 17.1565 21.4962 17.1403C21.4837 17.131 21.4721 17.1233 21.46 17.1144C21.4465 17.0977 21.4326 17.0819 21.4191 17.0649C21.4056 17.0548 21.3936 17.0462 21.3805 17.0367C21.3681 17.0214 21.3568 17.0075 21.3444 16.9919C21.3322 16.9827 21.3201 16.9747 21.3082 16.9659C21.2945 16.949 21.2811 16.9338 21.2673 16.9165C21.2541 16.9065 21.2415 16.8976 21.2287 16.8882C21.2158 16.8722 21.2032 16.8574 21.1902 16.8411C21.1771 16.8313 21.1643 16.8221 21.1516 16.8128C21.1387 16.7969 21.1261 16.7819 21.1131 16.7657C21.1001 16.756 21.0895 16.749 21.0769 16.7398C21.0633 16.7229 21.0497 16.7074 21.036 16.6903C21.0229 16.6805 21.0124 16.6736 20.9998 16.6644C20.9862 16.6476 20.9725 16.6319 20.9589 16.6149C20.9459 16.6051 20.9354 16.5982 20.9227 16.589C20.9098 16.5729 20.8973 16.5582 20.8842 16.5418C20.8713 16.5322 20.8605 16.525 20.848 16.5159C20.8344 16.4991 20.8208 16.4836 20.8071 16.4664C20.7936 16.4563 20.7815 16.4501 20.7685 16.4405C20.7552 16.424 20.7434 16.4078 20.73 16.391C20.717 16.3813 20.7063 16.3743 20.6938 16.3651C20.6802 16.3482 20.6667 16.3328 20.6529 16.3156C20.64 16.306 20.6292 16.2988 20.6167 16.2897C20.6031 16.2729 20.5895 16.2574 20.5758 16.2403C20.5628 16.2305 20.5522 16.2235 20.5396 16.2143C20.526 16.1974 20.5124 16.182 20.4987 16.1649C20.4856 16.1551 20.4752 16.1482 20.4625 16.1389C20.4489 16.1221 20.4352 16.1065 20.4216 16.0895C20.4085 16.0797 20.3981 16.0727 20.3854 16.0635C20.3725 16.0475 20.36 16.0328 20.3469 16.0164C20.334 16.0067 20.3232 15.9996 20.3107 15.9905C20.2971 15.9736 20.2835 15.9581 20.2698 15.941C20.2568 15.9313 20.2462 15.9243 20.2336 15.9151C20.22 15.8982 20.2064 15.8828 20.1927 15.8656C20.1792 15.8554 20.1672 15.8492 20.1541 15.8397C20.1409 15.8232 20.1289 15.8069 20.1156 15.7902C20.1025 15.7804 20.092 15.7735 20.0794 15.7643C20.0658 15.7474 20.0522 15.7319 20.0385 15.7148C20.0265 15.7058 20.0164 15.6997 20.0047 15.6912C19.9904 15.6736 19.9757 15.6574 19.9613 15.6393C19.9484 15.6296 19.9376 15.6225 19.9251 15.6134C19.9121 15.5973 19.8997 15.5827 19.8866 15.5663C19.8738 15.5566 19.8628 15.5494 19.8504 15.5403C19.8367 15.5234 19.8233 15.5081 19.8095 15.4909C19.7966 15.4812 19.7858 15.474 19.7733 15.4649C19.7597 15.4481 19.7461 15.4326 19.7324 15.4155C19.7195 15.4058 19.7087 15.3986 19.6962 15.3895C19.6827 15.3727 19.669 15.3571 19.6553 15.3401C19.6424 15.3304 19.6316 15.3233 19.6191 15.3142C19.6056 15.2973 19.5919 15.2818 19.5782 15.2647C19.5651 15.2549 19.5546 15.248 19.542 15.2388C19.5285 15.222 19.5148 15.2063 19.5011 15.1893C19.4881 15.1795 19.4775 15.1725 19.465 15.1634C19.4519 15.1472 19.4395 15.1326 19.4264 15.1162C19.4137 15.1067 19.4025 15.0992 19.3902 15.0903C19.3764 15.0733 19.3631 15.0581 19.3493 15.0408C19.3365 15.0312 19.3255 15.0239 19.3131 15.0149C19.2994 14.9979 19.286 14.9826 19.2722 14.9654C19.2594 14.9558 19.2484 14.9485 19.2361 14.9395C19.2224 14.9226 19.2088 14.9072 19.1951 14.89C19.1822 14.8803 19.1714 14.8731 19.159 14.8641C19.1454 14.8473 19.1317 14.8318 19.118 14.8146C19.105 14.8048 19.0943 14.7978 19.0819 14.7887C19.0682 14.7718 19.0546 14.7564 19.0409 14.7392C19.0273 14.7291 19.0153 14.7227 19.0024 14.7133C18.9891 14.6969 18.9772 14.6805 18.9638 14.6639C18.9507 14.654 18.9402 14.647 18.9277 14.6379C18.9147 14.6219 18.9021 14.6071 18.8891 14.5908C18.8762 14.5811 18.8654 14.5738 18.853 14.5649C18.8393 14.548 18.8257 14.5325 18.812 14.5154C18.7981 14.505 18.7867 14.4966 18.7735 14.4871C18.7604 14.471 18.748 14.4564 18.7349 14.44C18.7221 14.4303 18.711 14.423 18.6988 14.4141C18.6851 14.3972 18.6715 14.3818 18.6578 14.3646C18.6453 14.3552 18.6337 14.3497 18.6217 14.341C18.6076 14.3237 18.5948 14.3068 18.5807 14.2891C18.5686 14.2801 18.5585 14.274 18.547 14.2655C18.5327 14.2479 18.518 14.2316 18.5035 14.2137C18.4905 14.2039 18.4799 14.1967 18.4674 14.1877C18.4544 14.1716 18.4419 14.157 18.4288 14.1406C18.416 14.1309 18.4049 14.1235 18.3927 14.1147C18.379 14.0977 18.3655 14.0824 18.3517 14.0652C18.3388 14.0555 18.3279 14.0482 18.3156 14.0393C18.3019 14.0224 18.2884 14.0069 18.2746 13.9898C18.2608 13.9793 18.2493 13.971 18.2361 13.9615C18.2231 13.9455 18.2106 13.9307 18.1975 13.9144C18.1845 13.9046 18.1738 13.8974 18.1614 13.8885C18.1477 13.8715 18.1342 13.8562 18.1205 13.839C18.1084 13.83 18.0982 13.8237 18.0867 13.8154C18.0723 13.7977 18.0578 13.7816 18.0433 13.7635C18.0313 13.7545 18.021 13.7482 18.0095 13.7399C17.9958 13.723 17.9824 13.7077 17.9686 13.6905C17.9558 13.6809 17.9445 13.6732 17.9324 13.6645C17.9187 13.6475 17.9053 13.6323 17.8915 13.6151C17.8786 13.6054 17.8675 13.5979 17.8553 13.5891C17.8416 13.5722 17.8281 13.5569 17.8144 13.5397C17.8016 13.53 17.7904 13.5225 17.7782 13.5137C17.7646 13.4969 17.751 13.4814 17.7373 13.4643C17.7243 13.4546 17.7134 13.4471 17.7011 13.4383C17.6876 13.4215 17.6738 13.4059 17.6602 13.3889C17.6471 13.379 17.6364 13.3718 17.624 13.363C17.6105 13.3461 17.5967 13.3305 17.5831 13.3135C17.57 13.3036 17.5593 13.2964 17.5469 13.2876C17.5339 13.2713 17.5215 13.2569 17.5084 13.2404C17.4956 13.2308 17.4843 13.2232 17.4722 13.2145C17.4585 13.1975 17.4451 13.1822 17.4313 13.165C17.4189 13.1558 17.4068 13.1498 17.3951 13.1414C17.381 13.124 17.3683 13.1073 17.3542 13.0896C17.3415 13.08 17.33 13.0721 17.318 13.0636C17.3043 13.0467 17.2908 13.0314 17.2771 13.0142C17.2642 13.0045 17.253 12.9968 17.2409 12.9882C17.2273 12.9713 17.2137 12.9559 17.2 12.9388C17.187 12.929 17.1761 12.9215 17.1638 12.9128C17.1503 12.8959 17.1365 12.8804 17.1229 12.8634C17.1089 12.8529 17.0974 12.8442 17.0843 12.8351C17.0715 12.8191 17.0587 12.8042 17.0458 12.788C17.0326 12.778 17.022 12.7707 17.0096 12.762C16.9966 12.7459 16.9841 12.7312 16.9711 12.7149C16.9582 12.7053 16.947 12.6974 16.9349 12.689C16.9213 12.672 16.9077 12.6566 16.894 12.6395C16.8802 12.6291 16.8682 12.6202 16.8554 12.6112C16.8425 12.5951 16.8299 12.5804 16.8169 12.5641C16.8042 12.5545 16.7926 12.5465 16.7807 12.5382C16.767 12.5212 16.7535 12.5059 16.7398 12.4887C16.7273 12.4793 16.7153 12.4733 16.7036 12.4651C16.6896 12.4477 16.6768 12.431 16.6627 12.4133C16.6506 12.4041 16.6403 12.3976 16.6289 12.3897C16.6146 12.3719 16.5999 12.3558 16.5855 12.3378C16.5724 12.3279 16.5615 12.3203 16.5494 12.3118C16.5364 12.2957 16.5238 12.281 16.5108 12.2647C16.4981 12.2551 16.4865 12.2469 16.4747 12.2388C16.4609 12.2217 16.4474 12.2065 16.4337 12.1893C16.4208 12.1796 16.4094 12.1716 16.3976 12.1634C16.3839 12.1464 16.3703 12.131 16.3566 12.1139C16.3427 12.1035 16.3307 12.0943 16.3181 12.0857C16.3051 12.0696 16.2925 12.0547 16.2795 12.0385C16.2664 12.0287 16.2554 12.0208 16.2434 12.0126C16.2297 11.9956 16.2161 11.9802 16.2024 11.9631C16.189 11.953 16.1784 11.9455 16.1663 11.9372C16.1526 11.9202 16.1391 11.9049 16.1253 11.8877C16.1128 11.8783 16.1007 11.872 16.0892 11.8641C16.0758 11.8475 16.0641 11.8315 16.0506 11.8147C16.0381 11.8053 16.0259 11.7965 16.0145 11.7887C16.0007 11.7718 15.9872 11.7565 15.9735 11.7393C15.9617 11.7304 15.9506 11.7231 15.9398 11.7157C15.9254 11.6979 15.9108 11.6819 15.8964 11.6638C15.8827 11.6536 15.8701 11.6437 15.8578 11.6355C15.8448 11.6195 15.8323 11.6047 15.8193 11.5884C15.8063 11.5787 15.7947 11.5702 15.7831 11.5625C15.7694 11.5456 15.7558 11.5301 15.7422 11.513C15.7293 11.5034 15.7176 11.4971 15.706 11.4894C15.692 11.4721 15.6791 11.4551 15.6651 11.4375C15.6508 11.4268 15.6391 11.4173 15.6265 11.4093C15.6136 11.3932 15.601 11.3784 15.588 11.3621C15.5743 11.3519 15.5638 11.344 15.5518 11.3362C15.5388 11.32 15.5264 11.3054 15.5133 11.2891C15.5002 11.2793 15.4862 11.2705 15.4747 11.2631C15.4613 11.2466 15.4496 11.2305 15.4362 11.2137C15.4237 11.2043 15.4109 11.1948 15.4 11.1878C15.3864 11.1708 15.3728 11.1554 15.3591 11.1383C15.3461 11.1286 15.3342 11.1194 15.3229 11.1124C15.3093 11.0954 15.2957 11.0801 15.282 11.0629C15.2697 11.0537 15.2589 11.0461 15.2482 11.0393C15.2339 11.0215 15.2193 11.0054 15.2048 10.9874C15.1927 10.9783 15.184 10.9727 15.1735 10.9662C15.1585 10.9476 15.1428 10.9309 15.1277 10.912C15.1153 10.9027 15.107 10.8972 15.0964 10.8908C15.082 10.873 15.0675 10.8571 15.053 10.839C15.0407 10.8298 15.0297 10.824 15.0192 10.8178C15.0044 10.7995 14.9907 10.7822 14.9758 10.7636C14.9629 10.7538 14.9529 10.7462 14.942 10.74C14.9276 10.7221 14.9131 10.7063 14.8986 10.6881C14.8862 10.6787 14.8753 10.6726 14.8649 10.6669C14.8501 10.6486 14.8363 10.6312 14.8215 10.6127C14.8066 10.6015 14.7949 10.5924 14.7829 10.5868C14.7696 10.5702 14.7578 10.554 14.7444 10.5373C14.7307 10.527 14.7192 10.5189 14.7082 10.5137C14.6942 10.4963 14.6814 10.4795 14.6673 10.4618C14.6539 10.4517 14.6442 10.4452 14.6335 10.4406C14.6194 10.4232 14.6067 10.4066 14.5926 10.3888C14.5814 10.3804 14.5702 10.3741 14.5613 10.3699C14.5458 10.3507 14.531 10.3328 14.5155 10.3134C14.5037 10.3046 14.4933 10.3005 14.4842 10.2969C14.4683 10.2771 14.4544 10.258 14.4384 10.238C14.4276 10.2299 14.4179 10.2269 14.4095 10.2238C14.3929 10.2033 14.3779 10.1833 14.3613 10.1625C14.3506 10.1545 14.343 10.1506 14.3347 10.1483C14.3179 10.1274 14.3011 10.1083 14.2842 10.087C14.2748 10.08 14.2672 10.0769 14.26 10.0753C14.2425 10.0535 14.2247 10.0337 14.207 10.0116C14.1981 10.0049 14.1922 10.0027 14.1853 10.0022C14.1676 9.98027 14.1502 9.96082 14.1323 9.93857C14.1249 9.933 14.1188 9.929 14.113 9.92915C14.1097 9.92666 14.1067 9.92455 14.1034 9.92206C14.0871 9.90193 14.0715 9.88353 14.0552 9.86318C14.0503 9.85948 14.047 9.85602 14.0432 9.85609C14.0356 9.85044 14.029 9.84516 14.0215 9.83958C14.0071 9.82171 13.9926 9.8058 13.9781 9.78771C13.9756 9.78582 13.9728 9.78529 13.9708 9.78537C13.9617 9.77851 13.9533 9.77323 13.9443 9.76652C13.9296 9.7482 13.9158 9.73086 13.9009 9.71231C13.4028 9.33789 13.0444 9.14374 12.6581 9.15626" fill="black" fill-opacity="0.235"/>
<path fill-rule="evenodd" clip-rule="evenodd" d="M20 0C8.95451 0 0 8.50678 0 19C0 29.4932 8.95451 38 20 38C31.0455 38 40 29.4932 40 19C40 8.50678 31.0455 0 20 0ZM20.6923 3.3478C30.1747 3.3478 37.8609 10.6498 37.8609 19.658C37.8609 28.6662 30.1747 35.9682 20.6923 35.9682C11.21 35.9682 3.52133 28.6662 3.52133 19.658C3.52133 10.6498 11.21 3.3478 20.6923 3.3478Z" fill="black" fill-opacity="0.067"/>
<path fill-rule="evenodd" clip-rule="evenodd" d="M19.5 0C8.73031 0 0 8.50646 0 19C0 29.4935 8.73031 38 19.5 38C30.2697 38 39 29.4935 39 19C39 8.50646 30.2697 0 19.5 0ZM19.9562 2.91197C29.3275 2.91197 36.9238 10.3135 36.9238 19.4445C36.9238 28.5756 29.3275 35.9771 19.9562 35.9771C10.5848 35.9771 2.9862 28.5756 2.9862 19.4445C2.9862 10.3135 10.5848 2.91197 19.9562 2.91197Z" fill="black" fill-opacity="0.129"/>
<path fill-rule="evenodd" clip-rule="evenodd" d="M20.5 1C9.73027 1 1 9.28257 1 19.5C1 29.7174 9.73027 38 20.5 38C31.2697 38 40 29.7174 40 19.5C40 9.28257 31.2697 1 20.5 1ZM20.7317 3.36748C30.2517 3.36748 37.9686 10.6886 37.9686 19.7205C37.9686 28.7523 30.2517 36.0734 20.7317 36.0734C11.2116 36.0734 3.49238 28.7523 3.49238 19.7205C3.49238 10.6886 11.2116 3.36748 20.7317 3.36748Z" fill="black" fill-opacity="0.129"/>
<path fill-rule="evenodd" clip-rule="evenodd" d="M20 1C14.5474 1 9.63135 3.19215 6.16646 6.70333C2.96305 9.94954 1 14.3232 1 19.1344C1 23.5177 2.62937 27.5377 5.3415 30.6728C7.00609 32.597 9.07856 34.1879 11.4325 35.3248C14.0068 36.5682 16.9177 37.2687 20 37.2687C30.4938 37.2687 39 29.1494 39 19.1344C39 9.11864 30.493 1 20 1ZM20 2.94494C29.3687 2.94494 36.9628 10.1931 36.9628 19.1349C36.9628 28.0767 29.3687 35.3248 20 35.3248C10.6313 35.3248 3.03491 28.0767 3.03491 19.1349C3.03491 10.1931 10.6313 2.94494 20 2.94494Z" fill="white"/>
<path d="M5.3415 30.6728L3.03491 39L11.4325 35.3248C9.07856 34.1879 7.00609 32.597 5.3415 30.6728Z" fill="white"/>
<path d="M5.3415 30.6728C2.62937 27.5377 1 23.5177 1 19.1344C1 14.3232 2.96305 9.94954 6.16646 6.70333C9.63135 3.19215 14.5474 1 20 1C30.493 1 39 9.11864 39 19.1344C39 29.1494 30.4938 37.2687 20 37.2687C16.9177 37.2687 14.0068 36.5682 11.4325 35.3248M5.3415 30.6728L3.03491 39L11.4325 35.3248M5.3415 30.6728C7.00609 32.597 9.07856 34.1879 11.4325 35.3248M20 2.94494C29.3687 2.94494 36.9628 10.1931 36.9628 19.1349C36.9628 28.0767 29.3687 35.3248 20 35.3248C10.6313 35.3248 3.03491 28.0767 3.03491 19.1349C3.03491 10.1931 10.6313 2.94494 20 2.94494Z" stroke="white" stroke-width="1.4"/>
<path d="M9 12.265C9.0975 13.1906 9.50966 14.3532 10.1586 15.6324C11.3034 17.89 12.9861 20.6993 15.3778 22.8327C19.3373 26.3649 23.9127 28.9128 26.3179 29C27.7335 28.5731 29.0341 27.5028 29.6224 26.3194C29.9897 25.8669 30.1399 25.336 29.8406 24.9269C28.9394 23.6946 27.6253 22.772 26.4313 22.1825C25.435 21.6909 25.1164 21.1827 24.0044 21.4197C23.0613 22.0543 22.7761 22.3933 21.8125 23.3781C18.4868 22.8878 14.7411 18.7201 15.0886 16.6947C15.4649 16.2088 15.8179 15.9283 16.1258 15.6847C16.5964 15.3125 16.9613 15.0269 17.1418 14.2278C16.6141 12.1959 15.4484 11.4011 13.9315 9.54799C13.0407 8.89336 12.5961 8.79733 11.6394 9.4117C10.6914 10.2419 9.51866 10.8506 9.11882 11.9411L9 12.265Z" fill="white" stroke="white" stroke-width="0.0714155"/>
<path d="M22 14C23.699 14.1323 24.8752 14.9136 25 17" stroke="white" stroke-width="0.928666" stroke-linecap="round" stroke-linejoin="round"/>
<path d="M21 12C24.6477 12.3771 26.802 14.2255 27 18" stroke="white" stroke-width="0.928666" stroke-linecap="round" stroke-linejoin="round"/>
<path d="M20 9C26.4772 9.3574 29.5086 12.6113 30 18" stroke="white" stroke-width="0.928666" stroke-linecap="round" stroke-linejoin="round"/>
</svg>
